<?xml version="1.0" encoding="utf-8"?>
<svg xmlns="http://www.w3.org/2000/svg" xmlns:xlink="http://www.w3.org/1999/xlink" style="margin: auto; background: none; display: block; z-index: 1; position: relative; shape-rendering: auto;" width="2000" height="2000" preserveAspectRatio="xMidYMid" viewBox="0 0 2000 2000">
<g transform="translate(1000,1000) scale(1,1) translate(-1000,-1000)"><path id="path0" d="M 1506.1671897040317 842.0838063824565
c 0 31.11557751250177 -7.613385987101496 8.937453115293062 -16.550839102394555 8.937453115293062
S 1473.0655114992426 873.1993838949583 1473.0655114992426 842.0838063824565
s 7.613385987101496 -8.937453115293062 16.550839102394555 -8.937453115293062
S 1506.1671897040317 810.9682288699547 1506.1671897040317 842.0838063824565
z" fill="none" stroke="none"></path>
<circle cx="0" cy="0" r="7.652897986562191" fill="#1d497b">
  <animateMotion begin="-8.047246375514346s" dur="11.68s" repeatCount="indefinite">
    <mpath xlink:href="#path0"></mpath>
  </animateMotion>
</circle><path id="path1" d="M 1130.451780939578 1761.6439887660065
c 0 27.917257007048345 -6.830818203852254 8.018786587130908 -14.849604790983161 8.018786587130908
S 1100.7525713576115 1789.561245773055 1100.7525713576115 1761.6439887660065
s 6.830818203852254 -8.018786587130908 14.849604790983161 -8.018786587130908
S 1130.451780939578 1733.726731758958 1130.451780939578 1761.6439887660065
z" fill="none" stroke="none"></path>
<circle cx="0" cy="0" r="8.067759934435863" fill="#bcbcbc">
  <animateMotion begin="-6.924086621892202s" dur="11.68s" repeatCount="indefinite">
    <mpath xlink:href="#path1"></mpath>
  </animateMotion>
</circle><path id="path2" d="M 678.7399797337266 1839.6280212198067
c 0 31.496609376278748 -7.706617187812884 9.0468984378673 -16.753515625680183 9.0468984378673
S 645.2329484823663 1871.1246305960854 645.2329484823663 1839.6280212198067
s 7.706617187812884 -9.0468984378673 16.753515625680183 -9.0468984378673
S 678.7399797337266 1808.131411843528 678.7399797337266 1839.6280212198067
z" fill="none" stroke="none"></path>
<circle cx="0" cy="0" r="8.876247653448354" fill="#1d497b">
  <animateMotion begin="-1.3775241917359113s" dur="11.68s" repeatCount="indefinite">
    <mpath xlink:href="#path2"></mpath>
  </animateMotion>
</circle><path id="path3" d="M 169.42259900815205 259.90731154840506
c 0 25.62028540183539 -6.268793236619296 7.359018147335696 -13.627811383954993 7.359018147335696
S 142.16697624024206 285.5275969502404 142.16697624024206 259.90731154840506
s 6.268793236619296 -7.359018147335696 13.627811383954993 -7.359018147335696
S 169.42259900815205 234.28702614656967 169.42259900815205 259.90731154840506
z" fill="none" stroke="none"></path>
<circle cx="0" cy="0" r="7.127942083168463" fill="#0b2c4c">
  <animateMotion begin="-4.29851803275848s" dur="11.68s" repeatCount="indefinite">
    <mpath xlink:href="#path3"></mpath>
  </animateMotion>
</circle><path id="path4" d="M 975.9391814121223 617.1552045091585
c 0 23.51335563813249 -5.753267868904758 6.753836193931673 -12.507104062836431 6.753836193931673
S 950.9249732864494 640.6685601472909 950.9249732864494 617.1552045091585
s 5.753267868904758 -6.753836193931673 12.507104062836431 -6.753836193931673
S 975.9391814121223 593.641848871026 975.9391814121223 617.1552045091585
z" fill="none" stroke="none"></path>
<circle cx="0" cy="0" r="7.094482363524615" fill="#bcbcbc">
  <animateMotion begin="-8.469234676506716s" dur="11.68s" repeatCount="indefinite">
    <mpath xlink:href="#path4"></mpath>
  </animateMotion>
</circle><path id="path5" d="M 1903.981999013374 815.5817379263505
c 0 25.70795374417695 -6.290244001234785 7.384199479710401 -13.674443480945186 7.384199479710401
S 1876.6331120514835 841.2896916705274 1876.6331120514835 815.5817379263505
s 6.290244001234785 -7.384199479710401 13.674443480945186 -7.384199479710401
S 1903.981999013374 789.8737841821735 1903.981999013374 815.5817379263505
z" fill="none" stroke="none"></path>
<circle cx="0" cy="0" r="7.854963491811171" fill="#7fb4e1">
  <animateMotion begin="-9.947252855554483s" dur="11.68s" repeatCount="indefinite">
    <mpath xlink:href="#path5"></mpath>
  </animateMotion>
</circle><path id="path6" d="M 497.40610402934215 798.4942452880612
c 0 33.04568734715995 -8.085646904092327 9.491846365673602 -17.57749326976593 9.491846365673602
S 462.2511174898103 831.5399326352211 462.2511174898103 798.4942452880612
s 8.085646904092327 -9.491846365673602 17.57749326976593 -9.491846365673602
S 497.40610402934215 765.4485579409012 497.40610402934215 798.4942452880612
z" fill="none" stroke="none"></path>
<circle cx="0" cy="0" r="9.123305325480171" fill="#24323d">
  <animateMotion begin="-4.229741622375997s" dur="11.68s" repeatCount="indefinite">
    <mpath xlink:href="#path6"></mpath>
  </animateMotion>
</circle><path id="path7" d="M 1952.0457986209642 1746.1744767630191
c 0 28.501713166267713 -6.973823434299546 8.186662292438598 -15.160485726738145 8.186662292438598
S 1921.7248271674878 1774.676189929287 1921.7248271674878 1746.1744767630191
s 6.973823434299546 -8.186662292438598 15.160485726738145 -8.186662292438598
S 1952.0457986209642 1717.6727635967513 1952.0457986209642 1746.1744767630191
z" fill="none" stroke="none"></path>
<circle cx="0" cy="0" r="10.142251518976678" fill="#e7e9ea">
  <animateMotion begin="-10.492718239579151s" dur="11.68s" repeatCount="indefinite">
    <mpath xlink:href="#path7"></mpath>
  </animateMotion>
</circle><path id="path8" d="M 1582.2316137208877 109.32634976800192
c 0 21.436177648086147 -5.245022190489163 6.157199962748148 -11.402222153237311 6.157199962748148
S 1559.4271694144131 130.76252741608806 1559.4271694144131 109.32634976800192
s 5.245022190489163 -6.157199962748148 11.402222153237311 -6.157199962748148
S 1582.2316137208877 87.89017211991577 1582.2316137208877 109.32634976800192
z" fill="none" stroke="none"></path>
<circle cx="0" cy="0" r="9.95775274105665" fill="#80a3c6">
  <animateMotion begin="-5.111499146556603s" dur="11.68s" repeatCount="indefinite">
    <mpath xlink:href="#path8"></mpath>
  </animateMotion>
</circle><path id="path9" d="M 835.6453687491926 66.69083213291108
c 0 22.054414473823712 -5.3962929031696305 6.334778625460002 -11.731071528629633 6.334778625460002
S 812.1832256919333 88.7452466067348 812.1832256919333 66.69083213291108
s 5.3962929031696305 -6.334778625460002 11.731071528629633 -6.334778625460002
S 835.6453687491926 44.63641765908737 835.6453687491926 66.69083213291108
z" fill="none" stroke="none"></path>
<circle cx="0" cy="0" r="8.912068443603172" fill="#0b2c4c">
  <animateMotion begin="-10.482425268339504s" dur="11.68s" repeatCount="indefinite">
    <mpath xlink:href="#path9"></mpath>
  </animateMotion>
</circle><path id="path10" d="M 1722.66042820171 1659.784596660276
c 0 32.05357201762818 -7.842895280909021 9.206877068893201 -17.049772349802222 9.206877068893201
S 1688.5608835021055 1691.8381686779042 1688.5608835021055 1659.784596660276
s 7.842895280909021 -9.206877068893201 17.049772349802222 -9.206877068893201
S 1722.66042820171 1627.731024642648 1722.66042820171 1659.784596660276
z" fill="none" stroke="none"></path>
<circle cx="0" cy="0" r="7.538874832934015" fill="#e7e9ea">
  <animateMotion begin="-3.096993622461226s" dur="11.68s" repeatCount="indefinite">
    <mpath xlink:href="#path10"></mpath>
  </animateMotion>
</circle><path id="path11" d="M 747.5074489898444 262.5999055836615
c 0 37.23449506866936 -9.110567942333992 10.695014541000774 -19.805582483334764 10.695014541000774
S 707.8962840231749 299.8344006523308 707.8962840231749 262.5999055836615
s 9.110567942333992 -10.695014541000774 19.805582483334764 -10.695014541000774
S 747.5074489898444 225.36541051499213 747.5074489898444 262.5999055836615
z" fill="none" stroke="none"></path>
<circle cx="0" cy="0" r="9.522776916487084" fill="#648cb4">
  <animateMotion begin="-9.17538369602105s" dur="11.68s" repeatCount="indefinite">
    <mpath xlink:href="#path11"></mpath>
  </animateMotion>
</circle><path id="path12" d="M 1397.4070727017486 1856.283353413391
c 0 19.452629046623066 -4.759685830556707 5.587457279349178 -10.347143109905886 5.587457279349178
S 1376.712786481937 1875.7359824600142 1376.712786481937 1856.283353413391
s 4.759685830556707 -5.587457279349178 10.347143109905886 -5.587457279349178
S 1397.4070727017486 1836.830724366768 1397.4070727017486 1856.283353413391
z" fill="none" stroke="none"></path>
<circle cx="0" cy="0" r="6.6756384445229635" fill="#80a3c6">
  <animateMotion begin="-9.974169024932442s" dur="11.68s" repeatCount="indefinite">
    <mpath xlink:href="#path12"></mpath>
  </animateMotion>
</circle><path id="path13" d="M 2002.3723105041133 861.0341300169866
c 0 26.66772843000496 -6.525082488192702 7.6598794426609995 -14.184961930853701 7.6598794426609995
S 1974.002386642406 887.7018584469917 1974.002386642406 861.0341300169866
s 6.525082488192702 -7.6598794426609995 14.184961930853701 -7.6598794426609995
S 2002.3723105041133 834.3664015869816 2002.3723105041133 861.0341300169866
z" fill="none" stroke="none"></path>
<circle cx="0" cy="0" r="5.801662216603343" fill="#0b2c4c">
  <animateMotion begin="-2.0717405451179105s" dur="11.68s" repeatCount="indefinite">
    <mpath xlink:href="#path13"></mpath>
  </animateMotion>
</circle><path id="path14" d="M 1281.4871351726056 28.895553404516015
c 0 20.05896761849789 -4.908045268355866 5.761618358504713 -10.66966362686058 5.761618358504713
S 1260.1478079188846 48.9545210230139 1260.1478079188846 28.895553404516015
s 4.908045268355866 -5.761618358504713 10.66966362686058 -5.761618358504713
S 1281.4871351726056 8.836585786018126 1281.4871351726056 28.895553404516015
z" fill="none" stroke="none"></path>
<circle cx="0" cy="0" r="6.063040158853793" fill="#bcbcbc">
  <animateMotion begin="-2.664653721764247s" dur="11.68s" repeatCount="indefinite">
    <mpath xlink:href="#path14"></mpath>
  </animateMotion>
</circle><path id="path15" d="M 583.8412842585452 113.8090664467443
c 0 23.36992843583271 -5.718173978980343 6.712639018803013 -12.430812997783356 6.712639018803013
S 558.9796582629784 137.178994882577 558.9796582629784 113.8090664467443
s 5.718173978980343 -6.712639018803013 12.430812997783356 -6.712639018803013
S 583.8412842585452 90.43913801091159 583.8412842585452 113.8090664467443
z" fill="none" stroke="none"></path>
<circle cx="0" cy="0" r="7.938109049640319" fill="#bcbcbc">
  <animateMotion begin="-2.4164450356979077s" dur="11.68s" repeatCount="indefinite">
    <mpath xlink:href="#path15"></mpath>
  </animateMotion>
</circle><path id="path16" d="M 1368.8758463947797 574.1074331443723
c 0 22.73214295903706 -5.562120085721833 6.529445318021283 -12.091565403743116 6.529445318021283
S 1344.6927155872936 596.8395761034094 1344.6927155872936 574.1074331443723
s 5.562120085721833 -6.529445318021283 12.091565403743116 -6.529445318021283
S 1368.8758463947797 551.3752901853352 1368.8758463947797 574.1074331443723
z" fill="none" stroke="none"></path>
<circle cx="0" cy="0" r="6.1728223521414884" fill="#e7e9ea">
  <animateMotion begin="-3.9515982597425108s" dur="11.68s" repeatCount="indefinite">
    <mpath xlink:href="#path16"></mpath>
  </animateMotion>
</circle><path id="path17" d="M 746.5109708723131 13.93269912008369
c 0 35.22162265758596 -8.618056607707201 10.1168490612215 -18.7349056689287 10.1168490612215
S 709.0411595344557 49.15432177766965 709.0411595344557 13.93269912008369
s 8.618056607707201 -10.1168490612215 18.7349056689287 -10.1168490612215
S 746.5109708723131 -21.28892353750227 746.5109708723131 13.93269912008369
z" fill="none" stroke="none"></path>
<circle cx="0" cy="0" r="5.767650714674091" fill="#7fb4e1">
  <animateMotion begin="-2.43916698104242s" dur="11.68s" repeatCount="indefinite">
    <mpath xlink:href="#path17"></mpath>
  </animateMotion>
</circle><path id="path18" d="M 1267.843177443268 453.9892837566131
c 0 22.328181235519178 -5.463278387414267 6.413413759138487 -11.876692146552754 6.413413759138487
S 1244.0897931501622 476.3174649921323 1244.0897931501622 453.9892837566131
s 5.463278387414267 -6.413413759138487 11.876692146552754 -6.413413759138487
S 1267.843177443268 431.6611025210939 1267.843177443268 453.9892837566131
z" fill="none" stroke="none"></path>
<circle cx="0" cy="0" r="7.695437835630605" fill="#24323d">
  <animateMotion begin="-10.043825885649664s" dur="11.68s" repeatCount="indefinite">
    <mpath xlink:href="#path18"></mpath>
  </animateMotion>
</circle><path id="path19" d="M 1045.808006967621 798.1681226684825
c 0 28.54070892161779 -6.9833649489064795 8.197863200890216 -15.181228149796695 8.197863200890216
S 1015.4455506680276 826.7088315901003 1015.4455506680276 798.1681226684825
s 6.9833649489064795 -8.197863200890216 15.181228149796695 -8.197863200890216
S 1045.808006967621 769.6274137468647 1045.808006967621 798.1681226684825
z" fill="none" stroke="none"></path>
<circle cx="0" cy="0" r="11.219606201963758" fill="#1d497b">
  <animateMotion begin="-7.2983117247139395s" dur="11.68s" repeatCount="indefinite">
    <mpath xlink:href="#path19"></mpath>
  </animateMotion>
</circle><path id="path20" d="M 1141.6960710833403 1638.6607740142313
c 0 20.54221264100728 -5.026286071735823 5.900422779863793 -10.926708851599615 5.900422779863793
S 1119.842653380141 1659.2029866552386 1119.842653380141 1638.6607740142313
s 5.026286071735823 -5.900422779863793 10.926708851599615 -5.900422779863793
S 1141.6960710833403 1618.1185613732239 1141.6960710833403 1638.6607740142313
z" fill="none" stroke="none"></path>
<circle cx="0" cy="0" r="7.005769572503999" fill="#80a3c6">
  <animateMotion begin="-8.817888271021689s" dur="11.68s" repeatCount="indefinite">
    <mpath xlink:href="#path20"></mpath>
  </animateMotion>
</circle><path id="path21" d="M 1430.635384561216 304.0118301872906
c 0 35.42935643376653 -8.668885084857767 10.176517273528685 -18.84540235838645 10.176517273528685
S 1392.9445798444428 339.44118662105717 1392.9445798444428 304.0118301872906
s 8.668885084857767 -10.176517273528685 18.84540235838645 -10.176517273528685
S 1430.635384561216 268.5824737535241 1430.635384561216 304.0118301872906
z" fill="none" stroke="none"></path>
<circle cx="0" cy="0" r="8.876068521937414" fill="#e7e9ea">
  <animateMotion begin="-10.747216690633067s" dur="11.68s" repeatCount="indefinite">
    <mpath xlink:href="#path21"></mpath>
  </animateMotion>
</circle><path id="path22" d="M 964.5924848757561 413.86968428444936
c 0 29.619699983606093 -7.247373400244043 8.507786165503878 -15.75515956574792 8.507786165503878
S 933.0821657442602 443.48938426805546 933.0821657442602 413.86968428444936
s 7.247373400244043 -8.507786165503878 15.75515956574792 -8.507786165503878
S 964.5924848757561 384.24998430084327 964.5924848757561 413.86968428444936
z" fill="none" stroke="none"></path>
<circle cx="0" cy="0" r="5.876802461963037" fill="#1d497b">
  <animateMotion begin="-4.481201489277042s" dur="11.68s" repeatCount="indefinite">
    <mpath xlink:href="#path22"></mpath>
  </animateMotion>
</circle><path id="path23" d="M 631.093772742804 1455.7400450598943
c 0 32.47875896890997 -7.9469303860098846 9.329005235750737 -17.27593562176062 9.329005235750737
S 596.5419014992829 1488.2188040288042 596.5419014992829 1455.7400450598943
s 7.9469303860098846 -9.329005235750737 17.27593562176062 -9.329005235750737
S 631.093772742804 1423.2612860909844 631.093772742804 1455.7400450598943
z" fill="none" stroke="none"></path>
<circle cx="0" cy="0" r="10.266931283262016" fill="#1d497b">
  <animateMotion begin="-8.659808633301779s" dur="11.68s" repeatCount="indefinite">
    <mpath xlink:href="#path23"></mpath>
  </animateMotion>
</circle><path id="path24" d="M 478.6928842324198 1513.0016439663057
c 0 34.80394031885759 -8.515857737592814 9.996876474565479 -18.512734212158293 9.996876474565479
S 441.66741580810316 1547.8055842851631 441.66741580810316 1513.0016439663057
s 8.515857737592814 -9.996876474565479 18.512734212158293 -9.996876474565479
S 478.6928842324198 1478.1977036474482 478.6928842324198 1513.0016439663057
z" fill="none" stroke="none"></path>
<circle cx="0" cy="0" r="6.911078324154042" fill="#0b2c4c">
  <animateMotion begin="-0.04217607301203689s" dur="11.68s" repeatCount="indefinite">
    <mpath xlink:href="#path24"></mpath>
  </animateMotion>
</circle><path id="path25" d="M 1966.2244916432148 1251.5382760050857
c 0 30.032081237384045 -7.348275196381201 8.626236100099673 -15.974511296480873 8.626236100099673
S 1934.2754690502532 1281.5703572424698 1934.2754690502532 1251.5382760050857
s 7.348275196381201 -8.626236100099673 15.974511296480873 -8.626236100099673
S 1966.2244916432148 1221.5061947677016 1966.2244916432148 1251.5382760050857
z" fill="none" stroke="none"></path>
<circle cx="0" cy="0" r="9.536317599327129" fill="#648cb4">
  <animateMotion begin="-2.665700462573153s" dur="11.68s" repeatCount="indefinite">
    <mpath xlink:href="#path25"></mpath>
  </animateMotion>
</circle><path id="path26" d="M 1108.7693837184104 1264.4140072811406
c 0 36.2402145684609 -8.867286543346815 10.409423333494088 -19.276709876840904 10.409423333494088
S 1070.2159639647286 1300.6542218496015 1070.2159639647286 1264.4140072811406
s 8.867286543346815 -10.409423333494088 19.276709876840904 -10.409423333494088
S 1108.7693837184104 1228.1737927126796 1108.7693837184104 1264.4140072811406
z" fill="none" stroke="none"></path>
<circle cx="0" cy="0" r="7.899652657438225" fill="#7fb4e1">
  <animateMotion begin="-7.98304324376385s" dur="11.68s" repeatCount="indefinite">
    <mpath xlink:href="#path26"></mpath>
  </animateMotion>
</circle><path id="path27" d="M 264.7562746662222 1149.8720262716713
c 0 21.70056057786652 -5.309711630754572 6.233139740451021 -11.542851371205593 6.233139740451021
S 241.67057192381102 1171.5725868495379 241.67057192381102 1149.8720262716713
s 5.309711630754572 -6.233139740451021 11.542851371205593 -6.233139740451021
S 264.7562746662222 1128.1714656938047 264.7562746662222 1149.8720262716713
z" fill="none" stroke="none"></path>
<circle cx="0" cy="0" r="9.316066906145945" fill="#80a3c6">
  <animateMotion begin="-10.007382239562777s" dur="11.68s" repeatCount="indefinite">
    <mpath xlink:href="#path27"></mpath>
  </animateMotion>
</circle><path id="path28" d="M 1907.008167726888 250.3714863130217
c 0 25.254809624351566 -6.17936831234134 7.254041062313748 -13.433409374655088 7.254041062313748
S 1880.1413489775775 275.62629593737324 1880.1413489775775 250.3714863130217
s 6.17936831234134 -7.254041062313748 13.433409374655088 -7.254041062313748
S 1907.008167726888 225.11667668867014 1907.008167726888 250.3714863130217
z" fill="none" stroke="none"></path>
<circle cx="0" cy="0" r="6.330560737588862" fill="#7fb4e1">
  <animateMotion begin="-10.092516766440154s" dur="11.68s" repeatCount="indefinite">
    <mpath xlink:href="#path28"></mpath>
  </animateMotion>
</circle><path id="path29" d="M 175.8089246106798 1616.4550939018363
c 0 25.06944515973531 -6.134013177382044 7.200798077796312 -13.334811255178355 7.200798077796312
S 149.1393021003231 1641.5245390615717 149.1393021003231 1616.4550939018363
s 6.134013177382044 -7.200798077796312 13.334811255178355 -7.200798077796312
S 175.8089246106798 1591.385648742101 175.8089246106798 1616.4550939018363
z" fill="none" stroke="none"></path>
<circle cx="0" cy="0" r="10.218998319519526" fill="#24323d">
  <animateMotion begin="-9.313374473718065s" dur="11.68s" repeatCount="indefinite">
    <mpath xlink:href="#path29"></mpath>
  </animateMotion>
</circle><path id="path30" d="M 1209.9634748344354 1302.5777048785487
c 0 25.513059078631187 -6.242557008601247 7.32821909705364 -13.570776105654886 7.32821909705364
S 1182.8219226231256 1328.09076395718 1182.8219226231256 1302.5777048785487
s 6.242557008601247 -7.32821909705364 13.570776105654886 -7.32821909705364
S 1209.9634748344354 1277.0646457999176 1209.9634748344354 1302.5777048785487
z" fill="none" stroke="none"></path>
<circle cx="0" cy="0" r="10.222269664427742" fill="#e7e9ea">
  <animateMotion begin="-0.5287326116069454s" dur="11.68s" repeatCount="indefinite">
    <mpath xlink:href="#path30"></mpath>
  </animateMotion>
</circle><path id="path31" d="M 1256.5277370826843 922.4323927042049
c 0 31.28877021321342 -7.655762924509666 8.987199954859175 -16.64296287936884 8.987199954859175
S 1223.2418113239464 953.7211629174183 1223.2418113239464 922.4323927042049
s 7.655762924509666 -8.987199954859175 16.64296287936884 -8.987199954859175
S 1256.5277370826843 891.1436224909914 1256.5277370826843 922.4323927042049
z" fill="none" stroke="none"></path>
<circle cx="0" cy="0" r="9.470366076441898" fill="#bcbcbc">
  <animateMotion begin="-2.8395962868481996s" dur="11.68s" repeatCount="indefinite">
    <mpath xlink:href="#path31"></mpath>
  </animateMotion>
</circle><path id="path32" d="M 1419.0851037015298 1966.5023198152805
c 0 22.546681579967807 -5.516741237651697 6.476174496373732 -11.992915734025429 6.476174496373732
S 1395.0992722334788 1989.0490013952483 1395.0992722334788 1966.5023198152805
s 5.516741237651697 -6.476174496373732 11.992915734025429 -6.476174496373732
S 1419.0851037015298 1943.9556382353128 1419.0851037015298 1966.5023198152805
z" fill="none" stroke="none"></path>
<circle cx="0" cy="0" r="7.50758024696734" fill="#648cb4">
  <animateMotion begin="-2.138875719160513s" dur="11.68s" repeatCount="indefinite">
    <mpath xlink:href="#path32"></mpath>
  </animateMotion>
</circle><path id="path33" d="M 1026.1067414880754 1096.572525680385
c 0 23.748965394872677 -5.810917064702888 6.821511336825131 -12.63242840152802 6.821511336825131
S 1000.8418846850194 1120.3214910752577 1000.8418846850194 1096.572525680385
s 5.810917064702888 -6.821511336825131 12.63242840152802 -6.821511336825131
S 1026.1067414880754 1072.8235602855125 1026.1067414880754 1096.572525680385
z" fill="none" stroke="none"></path>
<circle cx="0" cy="0" r="6.54281525163254" fill="#1d497b">
  <animateMotion begin="-6.546107736047816s" dur="11.68s" repeatCount="indefinite">
    <mpath xlink:href="#path33"></mpath>
  </animateMotion>
</circle><path id="path34" d="M 585.7737668337753 1116.7928037607555
c 0 34.5463131537246 -8.45282130357091 9.92287718245281 -18.375698486023722 9.92287718245281
S 549.022369861728 1151.3391169144802 549.022369861728 1116.7928037607555
s 8.45282130357091 -9.92287718245281 18.375698486023722 -9.92287718245281
S 585.7737668337753 1082.2464906070309 585.7737668337753 1116.7928037607555
z" fill="none" stroke="none"></path>
<circle cx="0" cy="0" r="5.992638500335897" fill="#24323d">
  <animateMotion begin="-5.3329227108977095s" dur="11.68s" repeatCount="indefinite">
    <mpath xlink:href="#path34"></mpath>
  </animateMotion>
</circle><path id="path35" d="M 1596.8346765865533 1104.9374075456071
c 0 28.108271452890907 -6.877555781026498 8.073652438596325 -14.951208219622822 8.073652438596325
S 1566.9322601473075 1133.045678998498 1566.9322601473075 1104.9374075456071
s 6.877555781026498 -8.073652438596325 14.951208219622822 -8.073652438596325
S 1596.8346765865533 1076.8291360927162 1596.8346765865533 1104.9374075456071
z" fill="none" stroke="none"></path>
<circle cx="0" cy="0" r="7.133051973573207" fill="#bcbcbc">
  <animateMotion begin="-8.737042661381414s" dur="11.68s" repeatCount="indefinite">
    <mpath xlink:href="#path35"></mpath>
  </animateMotion>
</circle><path id="path36" d="M 110.36159764907714 1887.9405237934554
c 0 28.748665395096097 -7.034247915821385 8.257595379442495 -15.291843295263881 8.257595379442495
S 79.77791105854936 1916.6891891885516 79.77791105854936 1887.9405237934554
s 7.034247915821385 -8.257595379442495 15.291843295263881 -8.257595379442495
S 110.36159764907714 1859.1918583983593 110.36159764907714 1887.9405237934554
z" fill="none" stroke="none"></path>
<circle cx="0" cy="0" r="10.636848340840478" fill="#bcbcbc">
  <animateMotion begin="-9.634689184288552s" dur="11.68s" repeatCount="indefinite">
    <mpath xlink:href="#path36"></mpath>
  </animateMotion>
</circle><path id="path37" d="M 1234.5400253059004 928.5552537143443
c 0 26.9852708257424 -6.602779031830587 7.75108842867069 -14.353867460501277 7.75108842867069
S 1205.8322903848978 955.5405245400867 1205.8322903848978 928.5552537143443
s 6.602779031830587 -7.75108842867069 14.353867460501277 -7.75108842867069
S 1234.5400253059004 901.5699828886019 1234.5400253059004 928.5552537143443
z" fill="none" stroke="none"></path>
<circle cx="0" cy="0" r="6.360092048984471" fill="#24323d">
  <animateMotion begin="-3.677809315699553s" dur="11.68s" repeatCount="indefinite">
    <mpath xlink:href="#path37"></mpath>
  </animateMotion>
</circle><path id="path38" d="M 1636.1765210380775 1436.0199923695404
c 0 27.806782105748653 -6.803787110981053 7.987054434629932 -14.790841545610984 7.987054434629932
S 1606.5948379468557 1463.826774475289 1606.5948379468557 1436.0199923695404
s 6.803787110981053 -7.987054434629932 14.790841545610984 -7.987054434629932
S 1636.1765210380775 1408.2132102637918 1636.1765210380775 1436.0199923695404
z" fill="none" stroke="none"></path>
<circle cx="0" cy="0" r="6.809112412722101" fill="#0b2c4c">
  <animateMotion begin="-5.968104381330688s" dur="11.68s" repeatCount="indefinite">
    <mpath xlink:href="#path38"></mpath>
  </animateMotion>
</circle><path id="path39" d="M 1846.6159946059454 332.54504036407366
c 0 21.706651975778957 -5.3112020791799575 6.234889397298211 -11.546091476478168 6.234889397298211
S 1823.5238116529893 354.25169233985264 1823.5238116529893 332.54504036407366
s 5.3112020791799575 -6.234889397298211 11.546091476478168 -6.234889397298211
S 1846.6159946059454 310.8383883882947 1846.6159946059454 332.54504036407366
z" fill="none" stroke="none"></path>
<circle cx="0" cy="0" r="10.791627961077433" fill="#80a3c6">
  <animateMotion begin="-9.538546293501462s" dur="11.68s" repeatCount="indefinite">
    <mpath xlink:href="#path39"></mpath>
  </animateMotion>
</circle><path id="path40" d="M 1877.198915563854 1627.1838586359866
c 0 35.53446780021594 -8.69460382345709 10.206708836232238 -18.901312659689328 10.206708836232238
S 1839.396290244475 1662.7183264362025 1839.396290244475 1627.1838586359866
s 8.69460382345709 -10.206708836232238 18.901312659689328 -10.206708836232238
S 1877.198915563854 1591.6493908357706 1877.198915563854 1627.1838586359866
z" fill="none" stroke="none"></path>
<circle cx="0" cy="0" r="10.7333878850626" fill="#0b2c4c">
  <animateMotion begin="-4.541979829363028s" dur="11.68s" repeatCount="indefinite">
    <mpath xlink:href="#path40"></mpath>
  </animateMotion>
</circle><path id="path41" d="M 1651.1853152712686 331.9721058172143
c 0 37.085007591811625 -9.073991219273056 10.65207664871185 -19.726067867984906 10.65207664871185
S 1611.7331795352986 369.05711340902593 1611.7331795352986 331.9721058172143
s 9.073991219273056 -10.65207664871185 19.726067867984906 -10.65207664871185
S 1651.1853152712686 294.88709822540267 1651.1853152712686 331.9721058172143
z" fill="none" stroke="none"></path>
<circle cx="0" cy="0" r="7.279890481672859" fill="#24323d">
  <animateMotion begin="-4.918570176229209s" dur="11.68s" repeatCount="indefinite">
    <mpath xlink:href="#path41"></mpath>
  </animateMotion>
</circle><path id="path42" d="M 557.6337608898797 277.33101423319044
c 0 20.835916703141834 -5.09814983161981 5.984784584944995 -11.082934416564804 5.984784584944995
S 535.46789205675 298.1669309363323 535.46789205675 277.33101423319044
s 5.09814983161981 -5.984784584944995 11.082934416564804 -5.984784584944995
S 557.6337608898797 256.4950975300486 557.6337608898797 277.33101423319044
z" fill="none" stroke="none"></path>
<circle cx="0" cy="0" r="8.20359494783281" fill="#648cb4">
  <animateMotion begin="-9.489281062524865s" dur="11.68s" repeatCount="indefinite">
    <mpath xlink:href="#path42"></mpath>
  </animateMotion>
</circle><path id="path43" d="M 1055.0545561736808 449.6383429661288
c 0 31.76560293227427 -7.772434760024554 9.124162544376652 -16.896597304401205 9.124162544376652
S 1021.2613615648784 481.40394589840304 1021.2613615648784 449.6383429661288
s 7.772434760024554 -9.124162544376652 16.896597304401205 -9.124162544376652
S 1055.0545561736808 417.87274003385454 1055.0545561736808 449.6383429661288
z" fill="none" stroke="none"></path>
<circle cx="0" cy="0" r="6.860621504786042" fill="#80a3c6">
  <animateMotion begin="-11.351218561745139s" dur="11.68s" repeatCount="indefinite">
    <mpath xlink:href="#path43"></mpath>
  </animateMotion>
</circle><path id="path44" d="M 1313.8819799658017 1334.6447094827947
c 0 27.89593898932333 -6.825602093132304 8.012663326720531 -14.838265419852835 8.012663326720531
S 1284.205449126096 1362.5406484721182 1284.205449126096 1334.6447094827947
s 6.825602093132304 -8.012663326720531 14.838265419852835 -8.012663326720531
S 1313.8819799658017 1306.7487704934713 1313.8819799658017 1334.6447094827947
z" fill="none" stroke="none"></path>
<circle cx="0" cy="0" r="9.845164954726943" fill="#24323d">
  <animateMotion begin="-10.010827639896306s" dur="11.68s" repeatCount="indefinite">
    <mpath xlink:href="#path44"></mpath>
  </animateMotion>
</circle><path id="path45" d="M 1323.3223000163894 1150.5563384376803
c 0 36.82714944818359 -9.010898269236408 10.578011011712308 -19.588909280948716 10.578011011712308
S 1284.144481454492 1187.3834878858638 1284.144481454492 1150.5563384376803
s 9.010898269236408 -10.578011011712308 19.588909280948716 -10.578011011712308
S 1323.3223000163894 1113.7291889894968 1323.3223000163894 1150.5563384376803
z" fill="none" stroke="none"></path>
<circle cx="0" cy="0" r="6.9413446741137825" fill="#1d497b">
  <animateMotion begin="-9.408151214969578s" dur="11.68s" repeatCount="indefinite">
    <mpath xlink:href="#path45"></mpath>
  </animateMotion>
</circle><path id="path46" d="M 1108.5212962512207 1047.1995821198211
c 0 30.472357115033354 -7.456002272827309 8.752698320275538 -16.208700593102847 8.752698320275538
S 1076.1038950650152 1077.6719392348546 1076.1038950650152 1047.1995821198211
s 7.456002272827309 -8.752698320275538 16.208700593102847 -8.752698320275538
S 1108.5212962512207 1016.7272250047878 1108.5212962512207 1047.1995821198211
z" fill="none" stroke="none"></path>
<circle cx="0" cy="0" r="8.653855069702363" fill="#0b2c4c">
  <animateMotion begin="-9.131928089405811s" dur="11.68s" repeatCount="indefinite">
    <mpath xlink:href="#path46"></mpath>
  </animateMotion>
</circle><path id="path47" d="M 961.1645101493631 23.33838931261953
c 0 23.86990141258907 -5.840507792442006 6.856248278084095 -12.696756070526101 6.856248278084095
S 935.7709980083108 47.2082907252086 935.7709980083108 23.33838931261953
s 5.840507792442006 -6.856248278084095 12.696756070526101 -6.856248278084095
S 961.1645101493631 -0.5315120999695395 961.1645101493631 23.33838931261953
z" fill="none" stroke="none"></path>
<circle cx="0" cy="0" r="10.279534799918036" fill="#24323d">
  <animateMotion begin="-1.977443482728014s" dur="11.68s" repeatCount="indefinite">
    <mpath xlink:href="#path47"></mpath>
  </animateMotion>
</circle><path id="path48" d="M 577.143228953767 1500.7327965669115
c 0 21.389960314133965 -5.233713693883842 6.143924771081033 -11.377638464964875 6.143924771081033
S 554.3879520238372 1522.1227568810455 554.3879520238372 1500.7327965669115
s 5.233713693883842 -6.143924771081033 11.377638464964875 -6.143924771081033
S 577.143228953767 1479.3428362527775 577.143228953767 1500.7327965669115
z" fill="none" stroke="none"></path>
<circle cx="0" cy="0" r="7.524618028378127" fill="#0b2c4c">
  <animateMotion begin="-0.4984394141805252s" dur="11.68s" repeatCount="indefinite">
    <mpath xlink:href="#path48"></mpath>
  </animateMotion>
</circle><path id="path49" d="M 452.69643056664194 385.6491279167377
c 0 33.03709385130422 -8.083544240212733 9.489378021119297 -17.57292226133203 9.489378021119297
S 417.55058604397783 418.68622176804195 417.55058604397783 385.6491279167377
s 8.083544240212733 -9.489378021119297 17.57292226133203 -9.489378021119297
S 452.69643056664194 352.6120340654335 452.69643056664194 385.6491279167377
z" fill="none" stroke="none"></path>
<circle cx="0" cy="0" r="5.794696994598713" fill="#648cb4">
  <animateMotion begin="-6.250273511579148s" dur="11.68s" repeatCount="indefinite">
    <mpath xlink:href="#path49"></mpath>
  </animateMotion>
</circle><path id="path50" d="M 1910.7707593240734 1086.7445883171065
c 0 31.93792942536301 -7.8145997530143525 9.173660579625546 -16.988260332639896 9.173660579625546
S 1876.7942386587938 1118.6825177424696 1876.7942386587938 1086.7445883171065
s 7.8145997530143525 -9.173660579625546 16.988260332639896 -9.173660579625546
S 1910.7707593240734 1054.8066588917434 1910.7707593240734 1086.7445883171065
z" fill="none" stroke="none"></path>
<circle cx="0" cy="0" r="11.453238254131758" fill="#e7e9ea">
  <animateMotion begin="-4.013236132345535s" dur="11.68s" repeatCount="indefinite">
    <mpath xlink:href="#path50"></mpath>
  </animateMotion>
</circle><path id="path51" d="M 888.900661080695 1286.947024533561
c 0 23.89407348676616 -5.846422236123635 6.863191320666877 -12.709613556790512 6.863191320666877
S 863.4814339671141 1310.841098020327 863.4814339671141 1286.947024533561
s 5.846422236123635 -6.863191320666877 12.709613556790512 -6.863191320666877
S 888.900661080695 1263.052951046795 888.900661080695 1286.947024533561
z" fill="none" stroke="none"></path>
<circle cx="0" cy="0" r="11.49788073897205" fill="#bcbcbc">
  <animateMotion begin="-4.740815494414345s" dur="11.68s" repeatCount="indefinite">
    <mpath xlink:href="#path51"></mpath>
  </animateMotion>
</circle><path id="path52" d="M 234.45549014609838 374.4647854860811
c 0 23.20142050249419 -5.6769433144400665 6.6642378039079055 -12.341181118347972 6.6642378039079055
S 209.77312790940243 397.6662059885753 209.77312790940243 374.4647854860811
s 5.6769433144400665 -6.6642378039079055 12.341181118347972 -6.6642378039079055
S 234.45549014609838 351.2633649835869 234.45549014609838 374.4647854860811
z" fill="none" stroke="none"></path>
<circle cx="0" cy="0" r="8.1211455334131" fill="#e7e9ea">
  <animateMotion begin="-5.206506560932534s" dur="11.68s" repeatCount="indefinite">
    <mpath xlink:href="#path52"></mpath>
  </animateMotion>
</circle><path id="path53" d="M 439.13535627385545 1274.6211434475263
c 0 26.27873576253587 -6.429903431258777 7.548147506260303 -13.978050937519079 7.548147506260303
S 411.1792543988173 1300.8998792100622 411.1792543988173 1274.6211434475263
s 6.429903431258777 -7.548147506260303 13.978050937519079 -7.548147506260303
S 439.13535627385545 1248.3424076849903 439.13535627385545 1274.6211434475263
z" fill="none" stroke="none"></path>
<circle cx="0" cy="0" r="7.451412014012765" fill="#80a3c6">
  <animateMotion begin="-11.45813009739629s" dur="11.68s" repeatCount="indefinite">
    <mpath xlink:href="#path53"></mpath>
  </animateMotion>
</circle><path id="path54" d="M 1131.7096067115408 1279.3097706072256
c 0 21.247383303273768 -5.198827829524432 6.102971799876507 -11.30179962940094 6.102971799876507
S 1109.106007452739 1300.5571539104994 1109.106007452739 1279.3097706072256
s 5.198827829524432 -6.102971799876507 11.30179962940094 -6.102971799876507
S 1131.7096067115408 1258.0623873039517 1131.7096067115408 1279.3097706072256
z" fill="none" stroke="none"></path>
<circle cx="0" cy="0" r="11.470509031869058" fill="#e7e9ea">
  <animateMotion begin="-10.204526588467012s" dur="11.68s" repeatCount="indefinite">
    <mpath xlink:href="#path54"></mpath>
  </animateMotion>
</circle><path id="path55" d="M 1548.2954474246444 1226.7695839921419
c 0 28.03669951331583 -6.860043497938979 8.053094541058803 -14.913138038997783 8.053094541058803
S 1518.4691713466486 1254.8062835054577 1518.4691713466486 1226.7695839921419
s 6.860043497938979 -8.053094541058803 14.913138038997783 -8.053094541058803
S 1548.2954474246444 1198.732884478826 1548.2954474246444 1226.7695839921419
z" fill="none" stroke="none"></path>
<circle cx="0" cy="0" r="11.159546606248867" fill="#0b2c4c">
  <animateMotion begin="-3.7757250025361944s" dur="11.68s" repeatCount="indefinite">
    <mpath xlink:href="#path55"></mpath>
  </animateMotion>
</circle><path id="path56" d="M 993.3288009975976 1123.2634057914831
c 0 34.68738479234301 -8.487338832169034 9.96339775950278 -18.450736591671813 9.96339775950278
S 956.427327814254 1157.9507905838261 956.427327814254 1123.2634057914831
s 8.487338832169034 -9.96339775950278 18.450736591671813 -9.96339775950278
S 993.3288009975976 1088.5760209991402 993.3288009975976 1123.2634057914831
z" fill="none" stroke="none"></path>
<circle cx="0" cy="0" r="9.878295369742984" fill="#7fb4e1">
  <animateMotion begin="-4.644557037873686s" dur="11.68s" repeatCount="indefinite">
    <mpath xlink:href="#path56"></mpath>
  </animateMotion>
</circle><path id="path57" d="M 1614.8263775745968 93.12077115808518
c 0 20.315960261152135 -4.97092644687765 5.83543539416072 -10.80636184103837 5.83543539416072
S 1593.2136538925201 113.4367314192373 1593.2136538925201 93.12077115808518
s 4.97092644687765 -5.83543539416072 10.80636184103837 -5.83543539416072
S 1614.8263775745968 72.80481089693305 1614.8263775745968 93.12077115808518
z" fill="none" stroke="none"></path>
<circle cx="0" cy="0" r="7.0834776219368285" fill="#648cb4">
  <animateMotion begin="-8.183038206552832s" dur="11.68s" repeatCount="indefinite">
    <mpath xlink:href="#path57"></mpath>
  </animateMotion>
</circle><path id="path58" d="M 1751.1609082994441 1398.0025017156415
c 0 18.86262015268701 -4.615321952253204 5.4179866396015885 -10.033308591854793 5.4179866396015885
S 1731.0942911157344 1416.8651218683285 1731.0942911157344 1398.0025017156415
s 4.615321952253204 -5.4179866396015885 10.033308591854793 -5.4179866396015885
S 1751.1609082994441 1379.1398815629545 1751.1609082994441 1398.0025017156415
z" fill="none" stroke="none"></path>
<circle cx="0" cy="0" r="9.866893751758836" fill="#7fb4e1">
  <animateMotion begin="-3.721822670860826s" dur="11.68s" repeatCount="indefinite">
    <mpath xlink:href="#path58"></mpath>
  </animateMotion>
</circle><path id="path59" d="M 1555.2914440926086 240.2858034220454
c 0 29.997213112469353 -7.339743633902075 8.616220787624176 -15.955964421526252 8.616220787624176
S 1523.379515249556 270.2830165345148 1523.379515249556 240.2858034220454
s 7.339743633902075 -8.616220787624176 15.955964421526252 -8.616220787624176
S 1555.2914440926086 210.28859030957605 1555.2914440926086 240.2858034220454
z" fill="none" stroke="none"></path>
<circle cx="0" cy="0" r="9.10037325618339" fill="#1d497b">
  <animateMotion begin="-7.362047205938718s" dur="11.68s" repeatCount="indefinite">
    <mpath xlink:href="#path59"></mpath>
  </animateMotion>
</circle><path id="path60" d="M 1893.886525273081 401.15254214917667
c 0 29.407342425923922 -7.195413572300533 8.446789845744105 -15.642203418044637 8.446789845744105
S 1862.6021184369918 430.55988457510057 1862.6021184369918 401.15254214917667
s 7.195413572300533 -8.446789845744105 15.642203418044637 -8.446789845744105
S 1893.886525273081 371.74519972325277 1893.886525273081 401.15254214917667
z" fill="none" stroke="none"></path>
<circle cx="0" cy="0" r="6.0953641458594445" fill="#bcbcbc">
  <animateMotion begin="-4.635817250144006s" dur="11.68s" repeatCount="indefinite">
    <mpath xlink:href="#path60"></mpath>
  </animateMotion>
</circle><path id="path61" d="M 1291.1115264078792 784.4022547533161
c 0 36.424111264049266 -8.912282543331203 10.46224472478011 -19.37452726811131 10.46224472478011
S 1252.3624718716567 820.8263660173654 1252.3624718716567 784.4022547533161
s 8.912282543331203 -10.46224472478011 19.37452726811131 -10.46224472478011
S 1291.1115264078792 747.9781434892668 1291.1115264078792 784.4022547533161
z" fill="none" stroke="none"></path>
<circle cx="0" cy="0" r="9.156087741798792" fill="#e7e9ea">
  <animateMotion begin="-10.669310710399145s" dur="11.68s" repeatCount="indefinite">
    <mpath xlink:href="#path61"></mpath>
  </animateMotion>
</circle><path id="path62" d="M 383.41505284216464 757.7144855921697
c 0 26.162916053826823 -6.401564566361881 7.514880143120471 -13.916444709482352 7.514880143120471
S 355.5821634232 783.8774016459965 355.5821634232 757.7144855921697
s 6.401564566361881 -7.514880143120471 13.916444709482352 -7.514880143120471
S 383.41505284216464 731.5515695383428 383.41505284216464 757.7144855921697
z" fill="none" stroke="none"></path>
<circle cx="0" cy="0" r="7.57903235383413" fill="#80a3c6">
  <animateMotion begin="-11.223769103835494s" dur="11.68s" repeatCount="indefinite">
    <mpath xlink:href="#path62"></mpath>
  </animateMotion>
</circle><path id="path63" d="M 243.35641380875833 447.16275310619676
c 0 24.12442145255528 -5.902783972433737 6.929355098074389 -12.832139070508127 6.929355098074389
S 217.69213566774206 471.28717455875204 217.69213566774206 447.16275310619676
s 5.902783972433737 -6.929355098074389 12.832139070508127 -6.929355098074389
S 243.35641380875833 423.0383316536415 243.35641380875833 447.16275310619676
z" fill="none" stroke="none"></path>
<circle cx="0" cy="0" r="6.5740295708316925" fill="#24323d">
  <animateMotion begin="-7.913108962802103s" dur="11.68s" repeatCount="indefinite">
    <mpath xlink:href="#path63"></mpath>
  </animateMotion>
</circle><path id="path64" d="M 1126.96161018381 1360.1474840814908
c 0 22.329731639799423 -5.46365774165305 6.413859088027494 -11.877516829680543 6.413859088027494
S 1103.2065765244488 1382.4772157212901 1103.2065765244488 1360.1474840814908
s 5.46365774165305 -6.413859088027494 11.877516829680543 -6.413859088027494
S 1126.96161018381 1337.8177524416915 1126.96161018381 1360.1474840814908
z" fill="none" stroke="none"></path>
<circle cx="0" cy="0" r="9.64253191009369" fill="#80a3c6">
  <animateMotion begin="-0.901088462942913s" dur="11.68s" repeatCount="indefinite">
    <mpath xlink:href="#path64"></mpath>
  </animateMotion>
</circle><path id="path65" d="M 1185.2194619487777 1278.0488639075108
c 0 31.637542387255934 -7.741100796881771 9.087379196339471 -16.82847999322124 9.087379196339471
S 1151.5625019623353 1309.6864062947668 1151.5625019623353 1278.0488639075108
s 7.741100796881771 -9.087379196339471 16.82847999322124 -9.087379196339471
S 1185.2194619487777 1246.411321520255 1185.2194619487777 1278.0488639075108
z" fill="none" stroke="none"></path>
<circle cx="0" cy="0" r="8.292549715942775" fill="#7fb4e1">
  <animateMotion begin="-6.675808063043256s" dur="11.68s" repeatCount="indefinite">
    <mpath xlink:href="#path65"></mpath>
  </animateMotion>
</circle><path id="path66" d="M 1351.7618363541121 549.9281394921861
c 0 23.747820996991827 -5.810637052455446 6.821182626795524 -12.63181967925097 6.821182626795524
S 1326.49819699561 573.6759604891779 1326.49819699561 549.9281394921861
s 5.810637052455446 -6.821182626795524 12.63181967925097 -6.821182626795524
S 1351.7618363541121 526.1803184951943 1351.7618363541121 549.9281394921861
z" fill="none" stroke="none"></path>
<circle cx="0" cy="0" r="8.0732694791687" fill="#e7e9ea">
  <animateMotion begin="-3.1027557283000005s" dur="11.68s" repeatCount="indefinite">
    <mpath xlink:href="#path66"></mpath>
  </animateMotion>
</circle><path id="path67" d="M 1677.1733103365173 402.6321979019001
c 0 29.36391733190551 -7.18478828333858 8.434316680440944 -15.619104963779524 8.434316680440944
S 1645.935100408958 431.9961152338056 1645.935100408958 402.6321979019001
s 7.18478828333858 -8.434316680440944 15.619104963779524 -8.434316680440944
S 1677.1733103365173 373.2682805699946 1677.1733103365173 402.6321979019001
z" fill="none" stroke="none"></path>
<circle cx="0" cy="0" r="9.05554257493946" fill="#1d497b">
  <animateMotion begin="-4.016543782391438s" dur="11.68s" repeatCount="indefinite">
    <mpath xlink:href="#path67"></mpath>
  </animateMotion>
</circle><path id="path68" d="M 1752.2566322852626 570.9303730775308
c 0 34.56068680531992 -8.45633826087615 9.927005784506786 -18.383344045382934 9.927005784506786
S 1715.4899441944967 605.4910598828508 1715.4899441944967 570.9303730775308
s 8.45633826087615 -9.927005784506786 18.383344045382934 -9.927005784506786
S 1752.2566322852626 536.3696862722109 1752.2566322852626 570.9303730775308
z" fill="none" stroke="none"></path>
<circle cx="0" cy="0" r="8.017664193495854" fill="#648cb4">
  <animateMotion begin="-6.928787279409882s" dur="11.68s" repeatCount="indefinite">
    <mpath xlink:href="#path68"></mpath>
  </animateMotion>
</circle><path id="path69" d="M 515.3302255105577 888.3226146923148
c 0 20.32788567665155 -4.973844367691336 5.838860779463744 -10.812705147155079 5.838860779463744
S 493.70481521624754 908.6505003689664 493.70481521624754 888.3226146923148
s 4.973844367691336 -5.838860779463744 10.812705147155079 -5.838860779463744
S 515.3302255105577 867.9947290156632 515.3302255105577 888.3226146923148
z" fill="none" stroke="none"></path>
<circle cx="0" cy="0" r="6.0093887166035" fill="#648cb4">
  <animateMotion begin="-6.373101177973658s" dur="11.68s" repeatCount="indefinite">
    <mpath xlink:href="#path69"></mpath>
  </animateMotion>
</circle><path id="path70" d="M 1108.0422244056317 328.907758150314
c 0 26.532390392688683 -6.491967862040847 7.621005751091431 -14.112973613132278 7.621005751091431
S 1079.8162771793673 355.4401485430027 1079.8162771793673 328.907758150314
s 6.491967862040847 -7.621005751091431 14.112973613132278 -7.621005751091431
S 1108.0422244056317 302.3753677576253 1108.0422244056317 328.907758150314
z" fill="none" stroke="none"></path>
<circle cx="0" cy="0" r="8.20469751879762" fill="#1d497b">
  <animateMotion begin="-0.6065664094629691s" dur="11.68s" repeatCount="indefinite">
    <mpath xlink:href="#path70"></mpath>
  </animateMotion>
</circle><path id="path71" d="M 126.94521318288893 1924.8566731094566
c 0 20.786885878898616 -5.0861529278156175 5.9707012630879 -11.056854190903518 5.9707012630879
S 104.83150480108189 1945.6435589883552 104.83150480108189 1924.8566731094566
s 5.0861529278156175 -5.9707012630879 11.056854190903518 -5.9707012630879
S 126.94521318288893 1904.069787230558 126.94521318288893 1924.8566731094566
z" fill="none" stroke="none"></path>
<circle cx="0" cy="0" r="10.4505382893261" fill="#1d497b">
  <animateMotion begin="-7.8129739792833215s" dur="11.68s" repeatCount="indefinite">
    <mpath xlink:href="#path71"></mpath>
  </animateMotion>
</circle><path id="path72" d="M 1938.7031472217486 941.5556522761102
c 0 22.509533562241977 -5.507651829059206 6.465504321069504 -11.973156150128709 6.465504321069504
S 1914.7568349214912 964.0651858383521 1914.7568349214912 941.5556522761102
s 5.507651829059206 -6.465504321069504 11.973156150128709 -6.465504321069504
S 1938.7031472217486 919.0461187138683 1938.7031472217486 941.5556522761102
z" fill="none" stroke="none"></path>
<circle cx="0" cy="0" r="6.930441996373549" fill="#bcbcbc">
  <animateMotion begin="-9.450241008013693s" dur="11.68s" repeatCount="indefinite">
    <mpath xlink:href="#path72"></mpath>
  </animateMotion>
</circle></g>
</svg>