<?xml version="1.0" encoding="utf-8"?>
<svg xmlns="http://www.w3.org/2000/svg" xmlns:xlink="http://www.w3.org/1999/xlink" style="margin: auto; background: none; display: block; z-index: 1; position: relative; shape-rendering: auto;" width="2560" height="1080" preserveAspectRatio="xMidYMid" viewBox="0 0 2560 1080">
<g transform="translate(1280,540) scale(1,1) translate(-1280,-540)"><path id="path0" d="M 1766.4669542644392 197.1602628726234
c 0 31.053439243036326 -7.598181942445058 8.919604888957243 -16.5177868314023 8.919604888957243
S 1733.4313806016348 228.21370211565974 1733.4313806016348 197.1602628726234
s 7.598181942445058 -8.919604888957243 16.5177868314023 -8.919604888957243
S 1766.4669542644392 166.10682362958707 1766.4669542644392 197.1602628726234
z" fill="none" stroke="none"></path>
<circle cx="0" cy="0" r="9.305667527127794" fill="#80a3c6">
  <animateMotion begin="-2.124738029458403s" dur="11.68s" repeatCount="indefinite">
    <mpath xlink:href="#path0"></mpath>
  </animateMotion>
</circle><path id="path1" d="M 1024.480751196753 678.8234135239894
c 0 35.6194551353971 -8.715398596958863 10.231120092082145 -18.946518689041007 10.231120092082145
S 986.5877138186711 714.4428686593865 986.5877138186711 678.8234135239894
s 8.715398596958863 -10.231120092082145 18.946518689041007 -10.231120092082145
S 1024.480751196753 643.2039583885924 1024.480751196753 678.8234135239894
z" fill="none" stroke="none"></path>
<circle cx="0" cy="0" r="8.613085239236389" fill="#24323d">
  <animateMotion begin="-8.608351281181868s" dur="11.68s" repeatCount="indefinite">
    <mpath xlink:href="#path1"></mpath>
  </animateMotion>
</circle><path id="path2" d="M 2447.1753115340125 628.3308157465393
c 0 31.811765909767768 -7.783729956645304 9.137422123018402 -16.921152079663706 9.137422123018402
S 2413.3330073746847 660.1425816563071 2413.3330073746847 628.3308157465393
s 7.783729956645304 -9.137422123018402 16.921152079663706 -9.137422123018402
S 2447.1753115340125 596.5190498367715 2447.1753115340125 628.3308157465393
z" fill="none" stroke="none"></path>
<circle cx="0" cy="0" r="6.590235850962055" fill="#1d497b">
  <animateMotion begin="-7.608919389110788s" dur="11.68s" repeatCount="indefinite">
    <mpath xlink:href="#path2"></mpath>
  </animateMotion>
</circle><path id="path3" d="M 2559.558887637012 45.78112433508602
c 0 28.438894025779977 -6.958452793541909 8.16861849676659 -15.127071290308498 8.16861849676659
S 2529.3047450563954 74.22001836086599 2529.3047450563954 45.78112433508602
s 6.958452793541909 -8.16861849676659 15.127071290308498 -8.16861849676659
S 2559.558887637012 17.342230309306043 2559.558887637012 45.78112433508602
z" fill="none" stroke="none"></path>
<circle cx="0" cy="0" r="7.2003164739554135" fill="#bcbcbc">
  <animateMotion begin="-2.71610326232471s" dur="11.68s" repeatCount="indefinite">
    <mpath xlink:href="#path3"></mpath>
  </animateMotion>
</circle><path id="path4" d="M 2072.4409134906746 580.5837241905396
c 0 21.026873196601148 -5.144873228955599 6.039633790513095 -11.184507019468695 6.039633790513095
S 2050.0718994517374 601.6105973871407 2050.0718994517374 580.5837241905396
s 5.144873228955599 -6.039633790513095 11.184507019468695 -6.039633790513095
S 2072.4409134906746 559.5568509939384 2072.4409134906746 580.5837241905396
z" fill="none" stroke="none"></path>
<circle cx="0" cy="0" r="11.12223825676833" fill="#e7e9ea">
  <animateMotion begin="-9.554128937593012s" dur="11.68s" repeatCount="indefinite">
    <mpath xlink:href="#path4"></mpath>
  </animateMotion>
</circle><path id="path5" d="M 1520.9134100949407 600.3487204881797
c 0 34.36240664892154 -8.407822903459525 9.870052973626402 -18.277875877085926 9.870052973626402
S 1484.3576583407687 634.7111271371012 1484.3576583407687 600.3487204881797
s 8.407822903459525 -9.870052973626402 18.277875877085926 -9.870052973626402
S 1520.9134100949407 565.9863138392581 1520.9134100949407 600.3487204881797
z" fill="none" stroke="none"></path>
<circle cx="0" cy="0" r="6.393870587783304" fill="#e7e9ea">
  <animateMotion begin="-0.0790265714653162s" dur="11.68s" repeatCount="indefinite">
    <mpath xlink:href="#path5"></mpath>
  </animateMotion>
</circle><path id="path6" d="M 2458.278914553956 921.618860812673
c 0 21.95817597559848 -5.3727451855187764 6.307135652565521 -11.679880838084298 6.307135652565521
S 2434.919152877787 943.5770367882715 2434.919152877787 921.618860812673
s 5.3727451855187764 -6.307135652565521 11.679880838084298 -6.307135652565521
S 2458.278914553956 899.6606848370745 2458.278914553956 921.618860812673
z" fill="none" stroke="none"></path>
<circle cx="0" cy="0" r="9.478871512212963" fill="#bcbcbc">
  <animateMotion begin="-7.687231198228706s" dur="11.68s" repeatCount="indefinite">
    <mpath xlink:href="#path6"></mpath>
  </animateMotion>
</circle><path id="path7" d="M 755.3841321365932 961.3524340367728
c 0 22.655432522673166 -5.543350510866838 6.5074114692784635 -12.050761980145301 6.5074114692784635
S 731.2826081763025 984.007866559446 731.2826081763025 961.3524340367728
s 5.543350510866838 -6.5074114692784635 12.050761980145301 -6.5074114692784635
S 755.3841321365932 938.6970015140996 755.3841321365932 961.3524340367728
z" fill="none" stroke="none"></path>
<circle cx="0" cy="0" r="9.304540075793783" fill="#24323d">
  <animateMotion begin="-5.338243140582079s" dur="11.68s" repeatCount="indefinite">
    <mpath xlink:href="#path7"></mpath>
  </animateMotion>
</circle><path id="path8" d="M 1604.780463588917 430.03408353964903
c 0 31.76259512844671 -7.771698808024194 9.123298600724056 -16.89499740874825 9.123298600724056
S 1570.9904687714206 461.79667866809575 1570.9904687714206 430.03408353964903
s 7.771698808024194 -9.123298600724056 16.89499740874825 -9.123298600724056
S 1604.780463588917 398.2714884112023 1604.780463588917 430.03408353964903
z" fill="none" stroke="none"></path>
<circle cx="0" cy="0" r="9.101614411015234" fill="#1d497b">
  <animateMotion begin="-6.732060665377767s" dur="11.68s" repeatCount="indefinite">
    <mpath xlink:href="#path8"></mpath>
  </animateMotion>
</circle><path id="path9" d="M 232.24709721249354 241.6414298375608
c 0 21.038503452030948 -5.147718929752252 6.042974395796123 -11.190693325548375 6.042974395796123
S 209.86571056139678 262.67993328959176 209.86571056139678 241.6414298375608
s 5.147718929752252 -6.042974395796123 11.190693325548375 -6.042974395796123
S 232.24709721249354 220.60292638552986 232.24709721249354 241.6414298375608
z" fill="none" stroke="none"></path>
<circle cx="0" cy="0" r="10.656114489973561" fill="#0b2c4c">
  <animateMotion begin="-2.387994355810205s" dur="11.68s" repeatCount="indefinite">
    <mpath xlink:href="#path9"></mpath>
  </animateMotion>
</circle><path id="path10" d="M 2179.7705487204826 250.77947333738263
c 0 29.23174024045709 -7.15244708011184 8.396350920131292 -15.548798000243131 8.396350920131292
S 2148.6729527199964 280.0112135778397 2148.6729527199964 250.77947333738263
s 7.15244708011184 -8.396350920131292 15.548798000243131 -8.396350920131292
S 2179.7705487204826 221.54773309692553 2179.7705487204826 250.77947333738263
z" fill="none" stroke="none"></path>
<circle cx="0" cy="0" r="8.006565862302853" fill="#80a3c6">
  <animateMotion begin="-9.531166923308266s" dur="11.68s" repeatCount="indefinite">
    <mpath xlink:href="#path10"></mpath>
  </animateMotion>
</circle><path id="path11" d="M 1553.260121978679 821.4663424156356
c 0 29.519511084366755 -7.222859095111014 8.47900850295641 -15.701867598067423 8.47900850295641
S 1521.8563867825444 850.9858535000023 1521.8563867825444 821.4663424156356
s 7.222859095111014 -8.47900850295641 15.701867598067423 -8.47900850295641
S 1553.260121978679 791.9468313312689 1553.260121978679 821.4663424156356
z" fill="none" stroke="none"></path>
<circle cx="0" cy="0" r="10.627531012166239" fill="#bcbcbc">
  <animateMotion begin="-0.7967531550459748s" dur="11.68s" repeatCount="indefinite">
    <mpath xlink:href="#path11"></mpath>
  </animateMotion>
</circle><path id="path12" d="M 2079.7839712837804 917.8154248538749
c 0 23.368176565323274 -5.717745329813141 6.712135821954558 -12.429881151767699 6.712135821954558
S 2054.9242089802447 941.1836014191982 2054.9242089802447 917.8154248538749
s 5.717745329813141 -6.712135821954558 12.429881151767699 -6.712135821954558
S 2079.7839712837804 894.4472482885516 2079.7839712837804 917.8154248538749
z" fill="none" stroke="none"></path>
<circle cx="0" cy="0" r="10.608583598947181" fill="#bcbcbc">
  <animateMotion begin="-6.21146420502494s" dur="11.68s" repeatCount="indefinite">
    <mpath xlink:href="#path12"></mpath>
  </animateMotion>
</circle><path id="path13" d="M 1205.6404488026717 674.402835382771
c 0 26.994234993654448 -6.6049723920643855 7.753663242858193 -14.358635634922578 7.753663242858193
S 1176.9231775328265 701.3970703764254 1176.9231775328265 674.402835382771
s 6.6049723920643855 -7.753663242858193 14.358635634922578 -7.753663242858193
S 1205.6404488026717 647.4086003891165 1205.6404488026717 674.402835382771
z" fill="none" stroke="none"></path>
<circle cx="0" cy="0" r="8.999367977589964" fill="#80a3c6">
  <animateMotion begin="-6.7076940825896925s" dur="11.68s" repeatCount="indefinite">
    <mpath xlink:href="#path13"></mpath>
  </animateMotion>
</circle><path id="path14" d="M 1643.8199854614388 509.919330368289
c 0 33.58667659498747 -8.218016613667148 9.647236894304914 -17.86525350797206 9.647236894304914
S 1608.0894784454947 543.5060069632765 1608.0894784454947 509.919330368289
s 8.218016613667148 -9.647236894304914 17.86525350797206 -9.647236894304914
S 1643.8199854614388 476.33265377330156 1643.8199854614388 509.919330368289
z" fill="none" stroke="none"></path>
<circle cx="0" cy="0" r="9.098676127572567" fill="#e7e9ea">
  <animateMotion begin="-4.0988976396097065s" dur="11.68s" repeatCount="indefinite">
    <mpath xlink:href="#path14"></mpath>
  </animateMotion>
</circle><path id="path15" d="M 424.5738784123103 68.81267124437792
c 0 20.958306189021734 -5.128096195186169 6.019939011740286 -11.148035206926455 6.019939011740286
S 402.2778079984574 89.77097743339965 402.2778079984574 68.81267124437792
s 5.128096195186169 -6.019939011740286 11.148035206926455 -6.019939011740286
S 424.5738784123103 47.85436505535619 424.5738784123103 68.81267124437792
z" fill="none" stroke="none"></path>
<circle cx="0" cy="0" r="6.683794329535596" fill="#648cb4">
  <animateMotion begin="-3.2789883021660318s" dur="11.68s" repeatCount="indefinite">
    <mpath xlink:href="#path15"></mpath>
  </animateMotion>
</circle><path id="path16" d="M 149.72656185657289 682.4559492298871
c 0 19.52867929657103 -4.778293870437592 5.609301500078913 -10.387595370516504 5.609301500078913
S 128.9513711155399 701.9846285264581 128.9513711155399 682.4559492298871
s 4.778293870437592 -5.609301500078913 10.387595370516504 -5.609301500078913
S 149.72656185657289 662.9272699333161 149.72656185657289 682.4559492298871
z" fill="none" stroke="none"></path>
<circle cx="0" cy="0" r="10.40314238184715" fill="#bcbcbc">
  <animateMotion begin="-1.5701089515424576s" dur="11.68s" repeatCount="indefinite">
    <mpath xlink:href="#path16"></mpath>
  </animateMotion>
</circle><path id="path17" d="M 647.64115056846 34.85354648844531
c 0 33.03727681383247 -8.083589007639858 9.489430574185922 -17.573019581825783 9.489430574185922
S 612.4951114048085 67.89082330227778 612.4951114048085 34.85354648844531
s 8.083589007639858 -9.489430574185922 17.573019581825783 -9.489430574185922
S 647.64115056846 1.8162696746128404 647.64115056846 34.85354648844531
z" fill="none" stroke="none"></path>
<circle cx="0" cy="0" r="6.634514283877144" fill="#1d497b">
  <animateMotion begin="-7.551975670466811s" dur="11.68s" repeatCount="indefinite">
    <mpath xlink:href="#path17"></mpath>
  </animateMotion>
</circle><path id="path18" d="M 950.5175109556118 94.08038201552563
c 0 33.368369809015135 -8.164601123482425 9.584531753653284 -17.749132877135708 9.584531753653284
S 915.0192452013404 127.44875182454076 915.0192452013404 94.08038201552563
s 8.164601123482425 -9.584531753653284 17.749132877135708 -9.584531753653284
S 950.5175109556118 60.712012206510494 950.5175109556118 94.08038201552563
z" fill="none" stroke="none"></path>
<circle cx="0" cy="0" r="6.992371850847057" fill="#bcbcbc">
  <animateMotion begin="-8.548807471980794s" dur="11.68s" repeatCount="indefinite">
    <mpath xlink:href="#path18"></mpath>
  </animateMotion>
</circle><path id="path19" d="M 1058.6384072671915 29.758413299558676
c 0 32.92797891164072 -8.056845903912091 9.458036495896803 -17.514882399808894 9.458036495896803
S 1023.6086424675738 62.6863922111994 1023.6086424675738 29.758413299558676
s 8.056845903912091 -9.458036495896803 17.514882399808894 -9.458036495896803
S 1058.6384072671915 -3.169565612082046 1058.6384072671915 29.758413299558676
z" fill="none" stroke="none"></path>
<circle cx="0" cy="0" r="6.067156876524959" fill="#0b2c4c">
  <animateMotion begin="-3.427823406592066s" dur="11.68s" repeatCount="indefinite">
    <mpath xlink:href="#path19"></mpath>
  </animateMotion>
</circle><path id="path20" d="M 1551.821472970504 353.44985171941363
c 0 26.79572171629818 -6.556399994413383 7.696643471702668 -14.25304346611605 7.696643471702668
S 1523.315386038272 380.24557343571183 1523.315386038272 353.44985171941363
s 6.556399994413383 -7.696643471702668 14.25304346611605 -7.696643471702668
S 1551.821472970504 326.6541300031154 1551.821472970504 353.44985171941363
z" fill="none" stroke="none"></path>
<circle cx="0" cy="0" r="6.754277088814737" fill="#1d497b">
  <animateMotion begin="-2.1595488444131004s" dur="11.68s" repeatCount="indefinite">
    <mpath xlink:href="#path20"></mpath>
  </animateMotion>
</circle><path id="path21" d="M 1155.5316239836927 407.49676978330945
c 0 20.390908002093937 -4.989264723916601 5.856962936771662 -10.846227660688264 5.856962936771662
S 1133.839168662316 427.8876777854034 1133.839168662316 407.49676978330945
s 4.989264723916601 -5.856962936771662 10.846227660688264 -5.856962936771662
S 1155.5316239836927 387.1058617812155 1155.5316239836927 407.49676978330945
z" fill="none" stroke="none"></path>
<circle cx="0" cy="0" r="8.464612228886221" fill="#1d497b">
  <animateMotion begin="-1.3010212948689606s" dur="11.68s" repeatCount="indefinite">
    <mpath xlink:href="#path21"></mpath>
  </animateMotion>
</circle><path id="path22" d="M 129.1253222765418 505.4814345508118
c 0 29.965518500666764 -7.33198856931208 8.607117016148964 -15.939105585461045 8.607117016148964
S 97.24711110561971 535.4469530514785 97.24711110561971 505.4814345508118
s 7.33198856931208 -8.607117016148964 15.939105585461045 -8.607117016148964
S 129.1253222765418 475.51591605014505 129.1253222765418 505.4814345508118
z" fill="none" stroke="none"></path>
<circle cx="0" cy="0" r="10.978064073365374" fill="#bcbcbc">
  <animateMotion begin="-10.889533195424416s" dur="11.68s" repeatCount="indefinite">
    <mpath xlink:href="#path22"></mpath>
  </animateMotion>
</circle><path id="path23" d="M 1223.4337230893714 38.708079542135984
c 0 27.44429016943142 -6.715092275499176 7.882934410368599 -14.598026685867776 7.882934410368599
S 1194.2376697176358 66.1523697115674 1194.2376697176358 38.708079542135984
s 6.715092275499176 -7.882934410368599 14.598026685867776 -7.882934410368599
S 1223.4337230893714 11.263789372704565 1223.4337230893714 38.708079542135984
z" fill="none" stroke="none"></path>
<circle cx="0" cy="0" r="8.609940795011159" fill="#80a3c6">
  <animateMotion begin="-3.1438229148781582s" dur="11.68s" repeatCount="indefinite">
    <mpath xlink:href="#path23"></mpath>
  </animateMotion>
</circle><path id="path24" d="M 1092.242310986484 595.7775635029874
c 0 33.924974292499456 -8.300791582207312 9.744407509547717 -18.04519909175503 9.744407509547717
S 1056.151912802974 629.7025377954868 1056.151912802974 595.7775635029874
s 8.300791582207312 -9.744407509547717 18.04519909175503 -9.744407509547717
S 1092.242310986484 561.852589210488 1092.242310986484 595.7775635029874
z" fill="none" stroke="none"></path>
<circle cx="0" cy="0" r="8.17483427211638" fill="#7fb4e1">
  <animateMotion begin="-11.184172142471862s" dur="11.68s" repeatCount="indefinite">
    <mpath xlink:href="#path24"></mpath>
  </animateMotion>
</circle><path id="path25" d="M 1846.0011365436176 476.01425341892326
c 0 36.185188910421985 -8.853822818507506 10.39361809129142 -19.24744090979893 10.39361809129142
S 1807.5062547240195 512.1994423293453 1807.5062547240195 476.01425341892326
s 8.853822818507506 -10.39361809129142 19.24744090979893 -10.39361809129142
S 1846.0011365436176 439.8290645085013 1846.0011365436176 476.01425341892326
z" fill="none" stroke="none"></path>
<circle cx="0" cy="0" r="6.265519077972297" fill="#1d497b">
  <animateMotion begin="-9.333432847486307s" dur="11.68s" repeatCount="indefinite">
    <mpath xlink:href="#path25"></mpath>
  </animateMotion>
</circle><path id="path26" d="M 1863.5244274347694 732.3432566902094
c 0 32.83477234321732 -8.034040041425513 9.431264396456038 -17.46530443788155 9.431264396456038
S 1828.5938185590064 765.1780290334267 1828.5938185590064 732.3432566902094
s 8.034040041425513 -9.431264396456038 17.46530443788155 -9.431264396456038
S 1863.5244274347694 699.5084843469921 1863.5244274347694 732.3432566902094
z" fill="none" stroke="none"></path>
<circle cx="0" cy="0" r="10.961885645443354" fill="#bcbcbc">
  <animateMotion begin="-3.630221940891636s" dur="11.68s" repeatCount="indefinite">
    <mpath xlink:href="#path26"></mpath>
  </animateMotion>
</circle><path id="path27" d="M 473.45271887390527 393.91415034525863
c 0 26.409716750838374 -6.461951970949814 7.585769705028044 -14.047721675977858 7.585769705028044
S 445.35727552194953 420.323867096097 445.35727552194953 393.91415034525863
s 6.461951970949814 -7.585769705028044 14.047721675977858 -7.585769705028044
S 473.45271887390527 367.5044335944203 473.45271887390527 393.91415034525863
z" fill="none" stroke="none"></path>
<circle cx="0" cy="0" r="10.786885752685583" fill="#1d497b">
  <animateMotion begin="-3.6488418922655503s" dur="11.68s" repeatCount="indefinite">
    <mpath xlink:href="#path27"></mpath>
  </animateMotion>
</circle><path id="path28" d="M 1463.7636978370147 842.9207514519462
c 0 20.724272909517815 -5.07083273317989 5.952716686776394 -11.023549419956284 5.952716686776394
S 1441.7165989971022 863.645024361464 1441.7165989971022 842.9207514519462
s 5.07083273317989 -5.952716686776394 11.023549419956284 -5.952716686776394
S 1463.7636978370147 822.1964785424284 1463.7636978370147 842.9207514519462
z" fill="none" stroke="none"></path>
<circle cx="0" cy="0" r="8.227095092283616" fill="#80a3c6">
  <animateMotion begin="-0.12120861026497078s" dur="11.68s" repeatCount="indefinite">
    <mpath xlink:href="#path28"></mpath>
  </animateMotion>
</circle><path id="path29" d="M 1150.404845256504 545.8436035101801
c 0 32.313425529160256 -7.906476459262615 9.281515843482202 -17.187992302744817 9.281515843482202
S 1116.0288606510144 578.1570290393403 1116.0288606510144 545.8436035101801
s 7.906476459262615 -9.281515843482202 17.187992302744817 -9.281515843482202
S 1150.404845256504 513.5301779810198 1150.404845256504 545.8436035101801
z" fill="none" stroke="none"></path>
<circle cx="0" cy="0" r="11.2122189323467" fill="#7fb4e1">
  <animateMotion begin="-3.43061589131557s" dur="11.68s" repeatCount="indefinite">
    <mpath xlink:href="#path29"></mpath>
  </animateMotion>
</circle><path id="path30" d="M 2260.2741030538195 257.07668986612396
c 0 24.8462576672873 -6.0794034717830625 7.136691032093161 -13.216094503876224 7.136691032093161
S 2233.841914046067 281.9229475334113 2233.841914046067 257.07668986612396
s 6.0794034717830625 -7.136691032093161 13.216094503876224 -7.136691032093161
S 2260.2741030538195 232.23043219883667 2260.2741030538195 257.07668986612396
z" fill="none" stroke="none"></path>
<circle cx="0" cy="0" r="8.621401920667124" fill="#bcbcbc">
  <animateMotion begin="-4.7363321681528445s" dur="11.68s" repeatCount="indefinite">
    <mpath xlink:href="#path30"></mpath>
  </animateMotion>
</circle><path id="path31" d="M 1166.7112160431957 124.70827333922202
c 0 20.544357868759466 -5.026810967887954 5.901038962303251 -10.927849930191204 5.901038962303251
S 1144.855516182813 145.2526312079815 1144.855516182813 124.70827333922202
s 5.026810967887954 -5.901038962303251 10.927849930191204 -5.901038962303251
S 1166.7112160431957 104.16391547046256 1166.7112160431957 124.70827333922202
z" fill="none" stroke="none"></path>
<circle cx="0" cy="0" r="10.498231209239329" fill="#80a3c6">
  <animateMotion begin="-7.296275376203072s" dur="11.68s" repeatCount="indefinite">
    <mpath xlink:href="#path31"></mpath>
  </animateMotion>
</circle><path id="path32" d="M 393.27551740283127 451.7405293850782
c 0 29.783809845185967 -7.287527940843374 8.55492410446831 -15.842452045311683 8.55492410446831
S 361.5906133122079 481.52433923026416 361.5906133122079 451.7405293850782
s 7.287527940843374 -8.55492410446831 15.842452045311683 -8.55492410446831
S 393.27551740283127 421.9567195398923 393.27551740283127 451.7405293850782
z" fill="none" stroke="none"></path>
<circle cx="0" cy="0" r="10.039397345168808" fill="#bcbcbc">
  <animateMotion begin="-9.350814389345553s" dur="11.68s" repeatCount="indefinite">
    <mpath xlink:href="#path32"></mpath>
  </animateMotion>
</circle><path id="path33" d="M 716.1406752082929 713.3664405352105
c 0 23.483340546766925 -5.745923750804672 6.745214837901138 -12.49113858870581 6.745214837901138
S 691.1583980308814 736.8497810819774 691.1583980308814 713.3664405352105
s 5.745923750804672 -6.745214837901138 12.49113858870581 -6.745214837901138
S 716.1406752082929 689.8830999884435 716.1406752082929 713.3664405352105
z" fill="none" stroke="none"></path>
<circle cx="0" cy="0" r="7.5315074678430385" fill="#1d497b">
  <animateMotion begin="-6.257918762802484s" dur="11.68s" repeatCount="indefinite">
    <mpath xlink:href="#path33"></mpath>
  </animateMotion>
</circle><path id="path34" d="M 224.30246932675897 1001.2078525990423
c 0 26.65189898303314 -6.521209325635767 7.655332686615902 -14.17654201225167 7.655332686615902
S 195.94938530225562 1027.8597515820754 195.94938530225562 1001.2078525990423
s 6.521209325635767 -7.655332686615902 14.17654201225167 -7.655332686615902
S 224.30246932675897 974.5559536160092 224.30246932675897 1001.2078525990423
z" fill="none" stroke="none"></path>
<circle cx="0" cy="0" r="9.528859188831277" fill="#80a3c6">
  <animateMotion begin="-3.081593260637855s" dur="11.68s" repeatCount="indefinite">
    <mpath xlink:href="#path34"></mpath>
  </animateMotion>
</circle><path id="path35" d="M 1300.3991961087902 504.40491011870927
c 0 26.20894560142797 -6.412827115243013 7.528101396154843 -13.940928511397857 7.528101396154843
S 1272.5173390859943 530.6138557201373 1272.5173390859943 504.40491011870927
s 6.412827115243013 -7.528101396154843 13.940928511397857 -7.528101396154843
S 1300.3991961087902 478.1959645172813 1300.3991961087902 504.40491011870927
z" fill="none" stroke="none"></path>
<circle cx="0" cy="0" r="6.758038204452784" fill="#80a3c6">
  <animateMotion begin="-5.617532942783531s" dur="11.68s" repeatCount="indefinite">
    <mpath xlink:href="#path35"></mpath>
  </animateMotion>
</circle><path id="path36" d="M 1138.1245712478462 782.9247503628153
c 0 28.93303258094674 -7.079359035763563 8.310551911548533 -15.389910947312096 8.310551911548533
S 1107.3447493532221 811.857782943762 1107.3447493532221 782.9247503628153
s 7.079359035763563 -8.310551911548533 15.389910947312096 -8.310551911548533
S 1138.1245712478462 753.9917177818686 1138.1245712478462 782.9247503628153
z" fill="none" stroke="none"></path>
<circle cx="0" cy="0" r="11.210041535601146" fill="#24323d">
  <animateMotion begin="-0.8748424921565643s" dur="11.68s" repeatCount="indefinite">
    <mpath xlink:href="#path36"></mpath>
  </animateMotion>
</circle><path id="path37" d="M 2139.0839055449655 920.4415615176102
c 0 31.549410382334116 -7.719536582911538 9.06206468428746 -16.781601267198997 9.06206468428746
S 2105.520703010567 951.9909718999444 2105.520703010567 920.4415615176102
s 7.719536582911538 -9.06206468428746 16.781601267198997 -9.06206468428746
S 2139.0839055449655 888.8921511352761 2139.0839055449655 920.4415615176102
z" fill="none" stroke="none"></path>
<circle cx="0" cy="0" r="7.781503162977166" fill="#bcbcbc">
  <animateMotion begin="-4.77932652229736s" dur="11.68s" repeatCount="indefinite">
    <mpath xlink:href="#path37"></mpath>
  </animateMotion>
</circle><path id="path38" d="M 27.58170269696543 808.7026849837732
c 0 25.987332082578117 -6.358602530843581 7.464446449251162 -13.823048980094743 7.464446449251162
S -0.06439526322405698 834.6900170663513 -0.06439526322405698 808.7026849837732
s 6.358602530843581 -7.464446449251162 13.823048980094743 -7.464446449251162
S 27.58170269696543 782.7153529011952 27.58170269696543 808.7026849837732
z" fill="none" stroke="none"></path>
<circle cx="0" cy="0" r="11.417868892296488" fill="#80a3c6">
  <animateMotion begin="-11.323971315168345s" dur="11.68s" repeatCount="indefinite">
    <mpath xlink:href="#path38"></mpath>
  </animateMotion>
</circle><path id="path39" d="M 56.785364496769624 626.7014936981061
c 0 19.69249233267315 -4.818375783526409 5.656354180661437 -10.474729964187846 5.656354180661437
S 35.835904568393936 646.3939860307793 35.835904568393936 626.7014936981061
s 4.818375783526409 -5.656354180661437 10.474729964187846 -5.656354180661437
S 56.785364496769624 607.0090013654329 56.785364496769624 626.7014936981061
z" fill="none" stroke="none"></path>
<circle cx="0" cy="0" r="8.710320161698538" fill="#1d497b">
  <animateMotion begin="-5.668028946510164s" dur="11.68s" repeatCount="indefinite">
    <mpath xlink:href="#path39"></mpath>
  </animateMotion>
</circle><path id="path40" d="M 551.0595922236296 997.3266161515451
c 0 20.74888194137276 -5.0768540920380145 5.959785238479409 -11.036639330517424 5.959785238479409
S 528.9863135625947 1018.0754980929178 528.9863135625947 997.3266161515451
s 5.0768540920380145 -5.959785238479409 11.036639330517424 -5.959785238479409
S 551.0595922236296 976.5777342101724 551.0595922236296 997.3266161515451
z" fill="none" stroke="none"></path>
<circle cx="0" cy="0" r="7.8398209817662625" fill="#e7e9ea">
  <animateMotion begin="-3.5847852424035085s" dur="11.68s" repeatCount="indefinite">
    <mpath xlink:href="#path40"></mpath>
  </animateMotion>
</circle><path id="path41" d="M 467.07295158316424 1056.403952958215
c 0 33.563239381318034 -8.212281976279943 9.640504928676457 -17.8527869049564 9.640504928676457
S 431.3673777732514 1089.967192339533 431.3673777732514 1056.403952958215
s 8.212281976279943 -9.640504928676457 17.8527869049564 -9.640504928676457
S 467.07295158316424 1022.8407135768971 467.07295158316424 1056.403952958215
z" fill="none" stroke="none"></path>
<circle cx="0" cy="0" r="8.989929078249395" fill="#80a3c6">
  <animateMotion begin="-8.480722888425671s" dur="11.68s" repeatCount="indefinite">
    <mpath xlink:href="#path41"></mpath>
  </animateMotion>
</circle><path id="path42" d="M 500.09909838631853 967.4000376669401
c 0 33.52215251821287 -8.20222880764783 9.628703382890931 -17.83093219053876 9.628703382890931
S 464.437234005241 1000.922190185153 464.437234005241 967.4000376669401
s 8.20222880764783 -9.628703382890931 17.83093219053876 -9.628703382890931
S 500.09909838631853 933.8778851487272 500.09909838631853 967.4000376669401
z" fill="none" stroke="none"></path>
<circle cx="0" cy="0" r="8.934826439936925" fill="#7fb4e1">
  <animateMotion begin="-9.789444858904908s" dur="11.68s" repeatCount="indefinite">
    <mpath xlink:href="#path42"></mpath>
  </animateMotion>
</circle><path id="path43" d="M 1092.3749282741041 46.66472910692095
c 0 27.41598075523478 -6.708165503940425 7.874802982886586 -14.58296848682701 7.874802982886586
S 1063.2089913004502 74.08070986215573 1063.2089913004502 46.66472910692095
s 6.708165503940425 -7.874802982886586 14.58296848682701 -7.874802982886586
S 1092.3749282741041 19.24874835168617 1092.3749282741041 46.66472910692095
z" fill="none" stroke="none"></path>
<circle cx="0" cy="0" r="7.531488335421954" fill="#1d497b">
  <animateMotion begin="-9.012191537874902s" dur="11.68s" repeatCount="indefinite">
    <mpath xlink:href="#path43"></mpath>
  </animateMotion>
</circle><path id="path44" d="M 1130.1543375680417 236.74530326781868
c 0 35.84823616007928 -8.771376932785355 10.29683379066107 -19.068210723446427 10.29683379066107
S 1092.017916121149 272.59353942789795 1092.017916121149 236.74530326781868
s 8.771376932785355 -10.29683379066107 19.068210723446427 -10.29683379066107
S 1130.1543375680417 200.89706710773942 1130.1543375680417 236.74530326781868
z" fill="none" stroke="none"></path>
<circle cx="0" cy="0" r="10.566551980306508" fill="#0b2c4c">
  <animateMotion begin="-7.944887490954353s" dur="11.68s" repeatCount="indefinite">
    <mpath xlink:href="#path44"></mpath>
  </animateMotion>
</circle><path id="path45" d="M 1339.980164794804 666.2875018089151
c 0 24.20223840156259 -5.921824289744037 6.9517067749169135 -12.87353106466095 6.9517067749169135
S 1314.2331026654822 690.4897402104776 1314.2331026654822 666.2875018089151
s 5.921824289744037 -6.9517067749169135 12.87353106466095 -6.9517067749169135
S 1339.980164794804 642.0852634073525 1339.980164794804 666.2875018089151
z" fill="none" stroke="none"></path>
<circle cx="0" cy="0" r="5.8064890195657455" fill="#24323d">
  <animateMotion begin="-4.091460670473478s" dur="11.68s" repeatCount="indefinite">
    <mpath xlink:href="#path45"></mpath>
  </animateMotion>
</circle><path id="path46" d="M 595.2137220355729 722.3672314672467
c 0 27.685811687682158 -6.7741879661349955 7.952307612419344 -14.726495578554339 7.952307612419344
S 565.7607308784642 750.0530431549289 565.7607308784642 722.3672314672467
s 6.7741879661349955 -7.952307612419344 14.726495578554339 -7.952307612419344
S 595.2137220355729 694.6814197795645 595.2137220355729 722.3672314672467
z" fill="none" stroke="none"></path>
<circle cx="0" cy="0" r="10.837482655547376" fill="#648cb4">
  <animateMotion begin="-3.1775426204257955s" dur="11.68s" repeatCount="indefinite">
    <mpath xlink:href="#path46"></mpath>
  </animateMotion>
</circle><path id="path47" d="M 1138.8892102964235 1057.5283539824418
c 0 21.80314843896969 -5.334812915918115 6.26260646651257 -11.597419382430685 6.26260646651257
S 1115.6943715315622 1079.3315024214114 1115.6943715315622 1057.5283539824418
s 5.334812915918115 -6.26260646651257 11.597419382430685 -6.26260646651257
S 1138.8892102964235 1035.7252055434722 1138.8892102964235 1057.5283539824418
z" fill="none" stroke="none"></path>
<circle cx="0" cy="0" r="8.255404429385191" fill="#80a3c6">
  <animateMotion begin="-9.475749516512906s" dur="11.68s" repeatCount="indefinite">
    <mpath xlink:href="#path47"></mpath>
  </animateMotion>
</circle><path id="path48" d="M 2094.655394331261 696.3522901432806
c 0 34.05550940438523 -8.332731024477237 9.781901637429803 -18.114632661907038 9.781901637429803
S 2058.4261290074473 730.4077995476658 2058.4261290074473 696.3522901432806
s 8.332731024477237 -9.781901637429803 18.114632661907038 -9.781901637429803
S 2094.655394331261 662.2967807388953 2094.655394331261 696.3522901432806
z" fill="none" stroke="none"></path>
<circle cx="0" cy="0" r="7.660982501963022" fill="#24323d">
  <animateMotion begin="-5.452027393148525s" dur="11.68s" repeatCount="indefinite">
    <mpath xlink:href="#path48"></mpath>
  </animateMotion>
</circle><path id="path49" d="M 993.1506240396831 153.31043296868918
c 0 26.523272547439092 -6.489736899905308 7.618386795541015 -14.108123695446324 7.618386795541015
S 964.9343766487904 179.83370551612828 964.9343766487904 153.31043296868918
s 6.489736899905308 -7.618386795541015 14.108123695446324 -7.618386795541015
S 993.1506240396831 126.78716042125009 993.1506240396831 153.31043296868918
z" fill="none" stroke="none"></path>
<circle cx="0" cy="0" r="10.653653238301382" fill="#24323d">
  <animateMotion begin="-1.1789419685474727s" dur="11.68s" repeatCount="indefinite">
    <mpath xlink:href="#path49"></mpath>
  </animateMotion>
</circle><path id="path50" d="M 858.7875815898689 919.518185931788
c 0 23.972565345976374 -5.865627691036772 6.885736854695342 -12.751364545732113 6.885736854695342
S 833.2848524984046 943.4907512777644 833.2848524984046 919.518185931788
s 5.865627691036772 -6.885736854695342 12.751364545732113 -6.885736854695342
S 858.7875815898689 895.5456205858117 858.7875815898689 919.518185931788
z" fill="none" stroke="none"></path>
<circle cx="0" cy="0" r="11.015291980470035" fill="#24323d">
  <animateMotion begin="-1.2025916040328863s" dur="11.68s" repeatCount="indefinite">
    <mpath xlink:href="#path50"></mpath>
  </animateMotion>
</circle><path id="path51" d="M 1678.1827234359555 308.39716761187714
c 0 34.57656748642139 -8.46022395944353 9.931567256738058 -18.391791216181588 9.931567256738058
S 1641.3991410035921 342.9737350982985 1641.3991410035921 308.39716761187714
s 8.46022395944353 -9.931567256738058 18.391791216181588 -9.931567256738058
S 1678.1827234359555 273.82060012545577 1678.1827234359555 308.39716761187714
z" fill="none" stroke="none"></path>
<circle cx="0" cy="0" r="9.58084177621625" fill="#648cb4">
  <animateMotion begin="-6.004302393015475s" dur="11.68s" repeatCount="indefinite">
    <mpath xlink:href="#path51"></mpath>
  </animateMotion>
</circle><path id="path52" d="M 1229.2369121639542 772.2128383842014
c 0 36.32943007564814 -8.88911586957348 10.435049064281914 -19.324164933855393 10.435049064281914
S 1190.5885822962434 808.5422684598495 1190.5885822962434 772.2128383842014
s 8.88911586957348 -10.435049064281914 19.324164933855393 -10.435049064281914
S 1229.2369121639542 735.8834083085533 1229.2369121639542 772.2128383842014
z" fill="none" stroke="none"></path>
<circle cx="0" cy="0" r="10.14976571971389" fill="#7fb4e1">
  <animateMotion begin="-5.997252621733617s" dur="11.68s" repeatCount="indefinite">
    <mpath xlink:href="#path52"></mpath>
  </animateMotion>
</circle><path id="path53" d="M 1070.7940353257982 163.87052130763237
c 0 25.69464864479484 -6.28698849819448 7.380377802228304 -13.667366300422785 7.380377802228304
S 1043.4593027249525 189.5651699524272 1043.4593027249525 163.87052130763237
s 6.28698849819448 -7.380377802228304 13.667366300422785 -7.380377802228304
S 1070.7940353257982 138.17587266283755 1070.7940353257982 163.87052130763237
z" fill="none" stroke="none"></path>
<circle cx="0" cy="0" r="9.915351184248943" fill="#80a3c6">
  <animateMotion begin="-11.529885963553294s" dur="11.68s" repeatCount="indefinite">
    <mpath xlink:href="#path53"></mpath>
  </animateMotion>
</circle><path id="path54" d="M 1513.7218071253087 383.7325064128061
c 0 30.601756580771642 -7.487663844231358 8.78986625192377 -16.27753009615513 8.78986625192377
S 1481.1667469329986 414.33426299357774 1481.1667469329986 383.7325064128061
s 7.487663844231358 -8.78986625192377 16.27753009615513 -8.78986625192377
S 1513.7218071253087 353.1307498320345 1513.7218071253087 383.7325064128061
z" fill="none" stroke="none"></path>
<circle cx="0" cy="0" r="10.560901399808543" fill="#1d497b">
  <animateMotion begin="-5.505904528028976s" dur="11.68s" repeatCount="indefinite">
    <mpath xlink:href="#path54"></mpath>
  </animateMotion>
</circle><path id="path55" d="M 1432.0312237420746 788.5840562486948
c 0 30.28668590617211 -7.41057208342509 8.699367228368585 -16.109939311793674 8.699367228368585
S 1399.8113451184875 818.8707421548669 1399.8113451184875 788.5840562486948
s 7.41057208342509 -8.699367228368585 16.109939311793674 -8.699367228368585
S 1432.0312237420746 758.2973703425226 1432.0312237420746 788.5840562486948
z" fill="none" stroke="none"></path>
<circle cx="0" cy="0" r="11.22674014140246" fill="#1d497b">
  <animateMotion begin="-1.9167138074683272s" dur="11.68s" repeatCount="indefinite">
    <mpath xlink:href="#path55"></mpath>
  </animateMotion>
</circle><path id="path56" d="M 2297.951991491278 163.50670295475433
c 0 28.75240731165998 -7.035163491150846 8.258670185264037 -15.293833676414883 8.258670185264037
S 2267.364324138448 192.25911026641432 2267.364324138448 163.50670295475433
s 7.035163491150846 -8.258670185264037 15.293833676414883 -8.258670185264037
S 2297.951991491278 134.75429564309434 2297.951991491278 163.50670295475433
z" fill="none" stroke="none"></path>
<circle cx="0" cy="0" r="7.30224831592588" fill="#0b2c4c">
  <animateMotion begin="-10.118272612698126s" dur="11.68s" repeatCount="indefinite">
    <mpath xlink:href="#path56"></mpath>
  </animateMotion>
</circle><path id="path57" d="M 237.4257904837644 184.47098928230685
c 0 22.56013692953927 -5.520033504036204 6.480039330825109 -12.000072834861314 6.480039330825109
S 213.4256448140418 207.03112621184613 213.4256448140418 184.47098928230685
s 5.520033504036204 -6.480039330825109 12.000072834861314 -6.480039330825109
S 237.4257904837644 161.91085235276756 237.4257904837644 184.47098928230685
z" fill="none" stroke="none"></path>
<circle cx="0" cy="0" r="10.025940608662832" fill="#0b2c4c">
  <animateMotion begin="-10.936347605827324s" dur="11.68s" repeatCount="indefinite">
    <mpath xlink:href="#path57"></mpath>
  </animateMotion>
</circle><path id="path58" d="M 1636.5054925663042 346.6297581208039
c 0 26.107858021620466 -6.38809292018373 7.499065601954815 -13.887158522138545 7.499065601954815
S 1608.731175522027 372.7376161424244 1608.731175522027 346.6297581208039
s 6.38809292018373 -7.499065601954815 13.887158522138545 -7.499065601954815
S 1636.5054925663042 320.5219000991834 1636.5054925663042 346.6297581208039
z" fill="none" stroke="none"></path>
<circle cx="0" cy="0" r="5.807306618711243" fill="#0b2c4c">
  <animateMotion begin="-3.6068920295724394s" dur="11.68s" repeatCount="indefinite">
    <mpath xlink:href="#path58"></mpath>
  </animateMotion>
</circle><path id="path59" d="M 327.79083427249753 468.8965095928724
c 0 35.58413259862625 -8.706755848600038 10.22097425705222 -18.92773010565226 10.22097425705222
S 289.93537406119304 504.48064219149865 289.93537406119304 468.8965095928724
s 8.706755848600038 -10.22097425705222 18.92773010565226 -10.22097425705222
S 327.79083427249753 433.31237699424616 327.79083427249753 468.8965095928724
z" fill="none" stroke="none"></path>
<circle cx="0" cy="0" r="11.479317364980542" fill="#0b2c4c">
  <animateMotion begin="-10.63016217059437s" dur="11.68s" repeatCount="indefinite">
    <mpath xlink:href="#path59"></mpath>
  </animateMotion>
</circle><path id="path60" d="M 2265.1997841605485 946.7751182702924
c 0 25.549058420440517 -6.251365358192891 7.338559333530787 -13.589924691723677 7.338559333530787
S 2238.019934777101 972.3241766907329 2238.019934777101 946.7751182702924
s 6.251365358192891 -7.338559333530787 13.589924691723677 -7.338559333530787
S 2265.1997841605485 921.2260598498519 2265.1997841605485 946.7751182702924
z" fill="none" stroke="none"></path>
<circle cx="0" cy="0" r="7.715034153728199" fill="#7fb4e1">
  <animateMotion begin="-4.122232050804397s" dur="11.68s" repeatCount="indefinite">
    <mpath xlink:href="#path60"></mpath>
  </animateMotion>
</circle><path id="path61" d="M 2048.128837597383 416.07124453352617
c 0 32.963029937516026 -8.065422218753922 9.468104343754604 -17.533526562508527 9.468104343754604
S 2013.0617844723663 449.0342744710422 2013.0617844723663 416.07124453352617
s 8.065422218753922 -9.468104343754604 17.533526562508527 -9.468104343754604
S 2048.128837597383 383.10821459601016 2048.128837597383 416.07124453352617
z" fill="none" stroke="none"></path>
<circle cx="0" cy="0" r="10.30276001593331" fill="#24323d">
  <animateMotion begin="-3.896352426033608s" dur="11.68s" repeatCount="indefinite">
    <mpath xlink:href="#path61"></mpath>
  </animateMotion>
</circle><path id="path62" d="M 1188.9978413699614 309.8293090507679
c 0 23.601812132303582 -5.774911479180663 6.779243910342518 -12.554155389523181 6.779243910342518
S 1163.889530590915 333.43112118307147 1163.889530590915 309.8293090507679
s 5.774911479180663 -6.779243910342518 12.554155389523181 -6.779243910342518
S 1188.9978413699614 286.22749691846434 1188.9978413699614 309.8293090507679
z" fill="none" stroke="none"></path>
<circle cx="0" cy="0" r="11.129359327798111" fill="#80a3c6">
  <animateMotion begin="-10.897502044709327s" dur="11.68s" repeatCount="indefinite">
    <mpath xlink:href="#path62"></mpath>
  </animateMotion>
</circle><path id="path63" d="M 2243.243915806347 927.0757274589291
c 0 20.691686744104537 -5.062859522493663 5.943356830753431 -11.006216353247094 5.943356830753431
S 2221.231483099853 947.7674142030337 2221.231483099853 927.0757274589291
s 5.062859522493663 -5.943356830753431 11.006216353247094 -5.943356830753431
S 2243.243915806347 906.3840407148246 2243.243915806347 927.0757274589291
z" fill="none" stroke="none"></path>
<circle cx="0" cy="0" r="9.526728071716544" fill="#80a3c6">
  <animateMotion begin="-0.42994412261120807s" dur="11.68s" repeatCount="indefinite">
    <mpath xlink:href="#path63"></mpath>
  </animateMotion>
</circle><path id="path64" d="M 1623.3180913334747 574.5025651755705
c 0 23.29736822490417 -5.700419884816976 6.691797256089496 -12.392217140906471 6.691797256089496
S 1598.5336570516617 597.7999334004746 1598.5336570516617 574.5025651755705
s 5.700419884816976 -6.691797256089496 12.392217140906471 -6.691797256089496
S 1623.3180913334747 551.2051969506663 1623.3180913334747 574.5025651755705
z" fill="none" stroke="none"></path>
<circle cx="0" cy="0" r="10.901156773574794" fill="#7fb4e1">
  <animateMotion begin="-0.3835966014929711s" dur="11.68s" repeatCount="indefinite">
    <mpath xlink:href="#path64"></mpath>
  </animateMotion>
</circle><path id="path65" d="M 271.50896260735743 439.58410812596253
c 0 20.715031548950734 -5.068571549211349 5.950062253422019 -11.018633802633369 5.950062253422019
S 249.4716950020907 460.29913967491325 249.4716950020907 439.58410812596253
s 5.068571549211349 -5.950062253422019 11.018633802633369 -5.950062253422019
S 271.50896260735743 418.8690765770118 271.50896260735743 439.58410812596253
z" fill="none" stroke="none"></path>
<circle cx="0" cy="0" r="6.59840283580614" fill="#80a3c6">
  <animateMotion begin="-6.310752804469826s" dur="11.68s" repeatCount="indefinite">
    <mpath xlink:href="#path65"></mpath>
  </animateMotion>
</circle><path id="path66" d="M 2056.3741489152058 93.86423119903753
c 0 22.385010594875308 -5.477183443426936 6.429737085762057 -11.906920529188994 6.429737085762057
S 2032.5603078568279 116.24924179391284 2032.5603078568279 93.86423119903753
s 5.477183443426936 -6.429737085762057 11.906920529188994 -6.429737085762057
S 2056.3741489152058 71.47922060416222 2056.3741489152058 93.86423119903753
z" fill="none" stroke="none"></path>
<circle cx="0" cy="0" r="6.765544688555558" fill="#0b2c4c">
  <animateMotion begin="-0.9992301119618859s" dur="11.68s" repeatCount="indefinite">
    <mpath xlink:href="#path66"></mpath>
  </animateMotion>
</circle><path id="path67" d="M 851.4382449427942 846.312898280617
c 0 33.5206320550423 -8.201856779425242 9.628266654107895 -17.830123433533135 9.628266654107895
S 815.777998075728 879.8335303356592 815.777998075728 846.312898280617
s 8.201856779425242 -9.628266654107895 17.830123433533135 -9.628266654107895
S 851.4382449427942 812.7922662255747 851.4382449427942 846.312898280617
z" fill="none" stroke="none"></path>
<circle cx="0" cy="0" r="6.090840328201703" fill="#bcbcbc">
  <animateMotion begin="-11.446481505707256s" dur="11.68s" repeatCount="indefinite">
    <mpath xlink:href="#path67"></mpath>
  </animateMotion>
</circle><path id="path68" d="M 1022.8605038563941 680.7982780286094
c 0 36.26630247766061 -8.873669755172276 10.416916669115283 -19.29058642428756 10.416916669115283
S 984.279331007819 717.06458050627 984.279331007819 680.7982780286094
s 8.873669755172276 -10.416916669115283 19.29058642428756 -10.416916669115283
S 1022.8605038563941 644.5319755509488 1022.8605038563941 680.7982780286094
z" fill="none" stroke="none"></path>
<circle cx="0" cy="0" r="7.895411779093718" fill="#0b2c4c">
  <animateMotion begin="-10.348625905289342s" dur="11.68s" repeatCount="indefinite">
    <mpath xlink:href="#path68"></mpath>
  </animateMotion>
</circle><path id="path69" d="M 576.085556341715 94.0386119658148
c 0 21.284807856954167 -5.2079849011696355 6.113721405720877 -11.321706306890514 6.113721405720877
S 553.442143727934 115.32341982276895 553.442143727934 94.0386119658148
s 5.2079849011696355 -6.113721405720877 11.321706306890514 -6.113721405720877
S 576.085556341715 72.75380410886063 576.085556341715 94.0386119658148
z" fill="none" stroke="none"></path>
<circle cx="0" cy="0" r="9.017317679603421" fill="#24323d">
  <animateMotion begin="-1.6897165082793504s" dur="11.68s" repeatCount="indefinite">
    <mpath xlink:href="#path69"></mpath>
  </animateMotion>
</circle><path id="path70" d="M 1392.7049106077118 488.71205317523885
c 0 29.300631333722638 -7.1693034114427725 8.416138787345865 -15.585442198788638 8.416138787345865
S 1361.5340262101347 518.0126845089615 1361.5340262101347 488.71205317523885
s 7.1693034114427725 -8.416138787345865 15.585442198788638 -8.416138787345865
S 1392.7049106077118 459.4114218415162 1392.7049106077118 488.71205317523885
z" fill="none" stroke="none"></path>
<circle cx="0" cy="0" r="9.58848296935433" fill="#bcbcbc">
  <animateMotion begin="-8.392831118412385s" dur="11.68s" repeatCount="indefinite">
    <mpath xlink:href="#path70"></mpath>
  </animateMotion>
</circle><path id="path71" d="M 1032.361209839852 838.2235626721347
c 0 35.06272332689539 -8.579176984240359 10.07120776410825 -18.65038474834861 10.07120776410825
S 995.0604403431549 873.28628599903 995.0604403431549 838.2235626721347
s 8.579176984240359 -10.07120776410825 18.65038474834861 -10.07120776410825
S 1032.361209839852 803.1608393452393 1032.361209839852 838.2235626721347
z" fill="none" stroke="none"></path>
<circle cx="0" cy="0" r="9.665865539583477" fill="#24323d">
  <animateMotion begin="-10.719998485028304s" dur="11.68s" repeatCount="indefinite">
    <mpath xlink:href="#path71"></mpath>
  </animateMotion>
</circle><path id="path72" d="M 2410.9431080435324 45.13430718838001
c 0 32.54712454059842 -7.96365813227408 9.348642155278268 -17.31230028755235 9.348642155278268
S 2376.318507468428 77.68143172897842 2376.318507468428 45.13430718838001
s 7.96365813227408 -9.348642155278268 17.31230028755235 -9.348642155278268
S 2410.9431080435324 12.587182647781596 2410.9431080435324 45.13430718838001
z" fill="none" stroke="none"></path>
<circle cx="0" cy="0" r="7.659207160322082" fill="#e7e9ea">
  <animateMotion begin="-10.223386366976898s" dur="11.68s" repeatCount="indefinite">
    <mpath xlink:href="#path72"></mpath>
  </animateMotion>
</circle></g>
</svg>