<?xml version="1.0" encoding="utf-8"?>
<svg xmlns="http://www.w3.org/2000/svg" style="margin: auto; background: none; display: block; shape-rendering: auto;" width="648" height="250" preserveAspectRatio="xMidYMid">
<style type="text/css">
  text {
    text-anchor: middle; font-size: 131px; opacity: 0;
  }
</style>
<g style="transform-origin: 324px 125px; transform: scale(1.6375);">
<g transform="translate(324,125)">
  <g transform="translate(0,0)"><g class="path" style="transform: translate(0px, 0px) scale(0.7); transform-origin: -118.52px -6.16704px; animation: 50s linear -1.2s infinite normal forwards running float-7216a200-3896-430b-9daf-7bac228b43d5;"><path d="M29.76-55.04L29.76-55.04Q58.64-55.04 58.64-27.52L58.64-27.52L58.64-27.52Q58.64 0 29.76 0L29.76 0L5.92 0L5.92-55.04L29.76-55.04zM23.60-41.84L23.60-13.20L29.44-13.20L29.44-13.20Q40.56-13.20 40.56-25.12L40.56-25.12L40.56-29.92L40.56-29.92Q40.56-41.84 29.44-41.84L29.44-41.84L23.60-41.84" fill="#1d497b" stroke="none" stroke-width="none" transform="translate(-150.80001831054688,21.35295935058594)" style="fill: rgb(29, 73, 123);"></path></g><g class="path" style="transform: translate(0px, 0px) scale(0.7); transform-origin: -60.4px -6.16704px; animation: 50s linear -0.9s infinite normal forwards running float-7216a200-3896-430b-9daf-7bac228b43d5;"><path d="M68.16 0L68.16-55.04L112.64-55.04L112.64-41.84L85.84-41.84L85.84-32.40L108.88-32.40L108.88-19.76L85.84-19.76L85.84 0L68.16 0" fill="#1d497b" stroke="none" stroke-width="none" transform="translate(-150.80001831054688,21.35295935058594)" style="fill: rgb(11, 44, 76);"></path></g><g class="path" style="transform: translate(0px, 0px) scale(0.7); transform-origin: 2.55999px -6.16704px; animation: 50s linear -0.6s infinite normal forwards running float-7216a200-3896-430b-9daf-7bac228b43d5;"><path d="M186.32 0L168.80 0L168.80-19.84L168.80-19.84Q168.80-23.52 169.08-27.40L169.08-27.40L169.08-27.40Q169.36-31.28 169.68-33.92L169.68-33.92L169.68-33.92Q170-36.56 170.08-37.28L170.08-37.28L169.76-37.28L159.60 0L145.76 0L135.52-37.20L135.20-37.20L135.20-37.20Q135.28-36.48 135.64-33.88L135.64-33.88L135.64-33.88Q136-31.28 136.32-27.40L136.32-27.40L136.32-27.40Q136.64-23.52 136.64-19.84L136.64-19.84L136.64 0L120.40 0L120.40-55.04L145.36-55.04L153.68-23.28L154-23.28L162.24-55.04L186.32-55.04L186.32 0" fill="#1d497b" stroke="none" stroke-width="none" transform="translate(-150.80001831054688,21.35295935058594)" style="fill: rgb(29, 73, 123);"></path></g><g class="path" style="transform: translate(0px, 0px) scale(0.7); transform-origin: 70.48px -6.16704px; animation: 50s linear -0.3s infinite normal forwards running float-7216a200-3896-430b-9daf-7bac228b43d5;"><path d="M227.92-55.04L227.92-55.04Q233.04-55.04 237.04-52.68L237.04-52.68L237.04-52.68Q241.04-50.32 243.28-46.20L243.28-46.20L243.28-46.20Q245.52-42.08 245.52-36.96L245.52-36.96L245.52-35.92L245.52-35.92Q245.52-30.80 243.28-26.64L243.28-26.64L243.28-26.64Q241.04-22.48 237.04-20.12L237.04-20.12L237.04-20.12Q233.04-17.76 227.92-17.76L227.92-17.76L214.72-17.76L214.72 0L197.04 0L197.04-55.04L227.92-55.04zM214.72-42L214.72-30.64L222-30.64L222-30.64Q224.80-30.64 226.20-32.08L226.20-32.08L226.20-32.08Q227.60-33.52 227.60-36L227.60-36L227.60-36.64L227.60-36.64Q227.60-39.20 226.20-40.60L226.20-40.60L226.20-40.60Q224.80-42 222-42L222-42L214.72-42" fill="#1d497b" stroke="none" stroke-width="none" transform="translate(-150.80001831054688,21.35295935058594)" style="fill: rgb(11, 44, 76);"></path></g><g class="path" style="transform: translate(0px, 0px) scale(0.7); transform-origin: 129.2px -6.16704px; animation: 50s linear 0s infinite normal forwards running float-7216a200-3896-430b-9daf-7bac228b43d5;"><path d="M281.04-56L281.04-56Q293.28-56 300.40-49.88L300.40-49.88L300.40-49.88Q307.52-43.76 307.52-32.40L307.52-32.40L290.64-32.40L290.64-32.40Q290.64-37.20 288.12-40L288.12-40L288.12-40Q285.60-42.80 280.96-42.80L280.96-42.80L280.96-42.80Q275.60-42.80 273.08-39.44L273.08-39.44L273.08-39.44Q270.56-36.08 270.56-30.08L270.56-30.08L270.56-24.96L270.56-24.96Q270.56-19.04 273.08-15.64L273.08-15.64L273.08-15.64Q275.60-12.24 280.80-12.24L280.80-12.24L280.80-12.24Q285.92-12.24 288.56-14.88L288.56-14.88L288.56-14.88Q291.20-17.52 291.20-22.32L291.20-22.32L307.52-22.32L307.52-22.32Q307.52-11.04 300.60-5.04L300.60-5.04L300.60-5.04Q293.68 0.96 281.04 0.96L281.04 0.96L281.04 0.96Q266.96 0.96 259.72-6.24L259.72-6.24L259.72-6.24Q252.48-13.44 252.48-27.52L252.48-27.52L252.48-27.52Q252.48-41.60 259.72-48.80L259.72-48.80L259.72-48.80Q266.96-56 281.04-56L281.04-56" fill="#1d497b" stroke="none" stroke-width="none" transform="translate(-150.80001831054688,21.35295935058594)" style="fill: rgb(29, 73, 123);"></path></g></g>
</g>
</g>
<style id="float-7216a200-3896-430b-9daf-7bac228b43d5" data-anikit="">@keyframes float-7216a200-3896-430b-9daf-7bac228b43d5 {
  0% {
    animation-timing-function: cubic-bezier(0,0.4,0.6,1);
    transform: translate(0,0) scale(0.7000000000000001);
    box-shadow: 0 0 0 rgba(0,0,0,.3);
  }
  50% {
    animation-timing-function: cubic-bezier(0.4,0,1,0.6);
    transform: translate(0,-15px) scale(1);
    box-shadow: 0 23px 5px -15px rgba(0,0,0,.2)
  }
  100% {
    transform: translate(0,0) scale(0.7000000000000001);
    box-shadow: 0 0 0 rgba(0,0,0,.3)
  }
} </style></svg>